<svg xmlns="http://www.w3.org/2000/svg" xmlns:xlink="http://www.w3.org/1999/xlink" width="447" zoomAndPan="magnify" viewBox="0 0 335.25 314.999992" height="420" preserveAspectRatio="xMidYMid meet" version="1.0"><defs><g/><clipPath id="4a7b03f309"><path d="M 117 126 L 259.542969 126 L 259.542969 219.230469 L 117 219.230469 Z M 117 126 " clip-rule="nonzero"/></clipPath><clipPath id="db2ae5e286"><path d="M 75.453125 1 L 235 1 L 235 103 L 75.453125 103 Z M 75.453125 1 " clip-rule="nonzero"/></clipPath></defs><g clip-path="url(#4a7b03f309)"><path fill="#ffffff" d="M 259.542969 158.726562 C 259.542969 141.925781 238 132.292969 221.792969 126.507812 L 219.40625 133.152344 C 241.648438 141.09375 252.460938 149.457031 252.460938 158.726562 C 252.460938 168.707031 240.574219 177.324219 215.058594 185.847656 C 200.714844 190.601562 183.503906 194.847656 166.859375 198.949219 C 149.933594 203.125 132.429688 207.441406 117.699219 212.363281 L 119.941406 219.070312 C 134.40625 214.25 151.769531 209.972656 168.558594 205.828125 C 185.351562 201.6875 202.683594 197.414062 217.300781 192.566406 C 236.964844 185.972656 259.542969 176.191406 259.542969 158.726562 Z M 259.542969 158.726562 " fill-opacity="1" fill-rule="nonzero"/></g><path fill="#ffffff" d="M 204.710938 62.996094 L 211.71875 56.007812 L 216.726562 61 L 209.71875 67.988281 Z M 204.710938 62.996094 " fill-opacity="1" fill-rule="nonzero"/><path fill="#ffffff" d="M 163.957031 39.203125 L 171.039062 39.203125 L 171.039062 49.085938 L 163.957031 49.085938 Z M 163.957031 39.203125 " fill-opacity="1" fill-rule="nonzero"/><path fill="#ffffff" d="M 137.730469 111.953125 C 137.515625 112.738281 137.46875 113.53125 137.582031 114.335938 C 137.699219 115.140625 137.96875 115.886719 138.390625 116.582031 L 142.640625 123.613281 C 142.847656 123.953125 143.085938 124.269531 143.355469 124.566406 C 143.625 124.859375 143.917969 125.125 144.238281 125.363281 C 144.5625 125.601562 144.902344 125.808594 145.261719 125.980469 C 145.621094 126.152344 145.996094 126.289062 146.382812 126.390625 C 146.769531 126.492188 147.160156 126.558594 147.5625 126.582031 C 147.960938 126.609375 148.359375 126.597656 148.753906 126.546875 C 149.152344 126.496094 149.539062 126.410156 149.917969 126.285156 C 150.296875 126.160156 150.664062 126 151.011719 125.804688 L 152.125 125.191406 C 153.664062 126.277344 155.300781 127.191406 157.035156 127.929688 L 157.035156 128.921875 C 157.042969 129.324219 157.085938 129.71875 157.167969 130.113281 C 157.25 130.503906 157.371094 130.886719 157.53125 131.257812 C 157.6875 131.625 157.878906 131.976562 158.109375 132.308594 C 158.335938 132.640625 158.59375 132.945312 158.878906 133.226562 C 159.167969 133.507812 159.480469 133.757812 159.816406 133.976562 C 160.152344 134.199219 160.507812 134.382812 160.882812 134.53125 C 161.253906 134.683594 161.640625 134.796875 162.035156 134.871094 C 162.429688 134.945312 162.828125 134.980469 163.230469 134.976562 L 171.746094 134.976562 C 172.148438 134.980469 172.546875 134.945312 172.945312 134.871094 C 173.339844 134.796875 173.722656 134.683594 174.097656 134.53125 C 174.46875 134.382812 174.824219 134.199219 175.164062 133.976562 C 175.5 133.757812 175.8125 133.507812 176.097656 133.226562 C 176.386719 132.945312 176.644531 132.640625 176.871094 132.308594 C 177.097656 131.976562 177.289062 131.625 177.449219 131.257812 C 177.605469 130.886719 177.726562 130.503906 177.808594 130.113281 C 177.894531 129.71875 177.9375 129.324219 177.941406 128.921875 L 177.941406 127.929688 C 179.675781 127.191406 181.316406 126.277344 182.855469 125.191406 L 183.96875 125.804688 C 184.320312 126 184.683594 126.160156 185.0625 126.285156 C 185.441406 126.410156 185.832031 126.496094 186.226562 126.546875 C 186.625 126.597656 187.023438 126.609375 187.421875 126.582031 C 187.820312 126.558594 188.210938 126.496094 188.597656 126.394531 C 188.984375 126.292969 189.359375 126.15625 189.71875 125.980469 C 190.078125 125.808594 190.417969 125.601562 190.738281 125.363281 C 191.0625 125.125 191.355469 124.859375 191.625 124.566406 C 191.894531 124.269531 192.132812 123.953125 192.339844 123.613281 L 196.585938 116.582031 C 197.011719 115.886719 197.28125 115.140625 197.394531 114.335938 C 197.511719 113.53125 197.460938 112.738281 197.25 111.953125 C 197.03125 111.15625 196.667969 110.433594 196.152344 109.78125 C 195.640625 109.132812 195.023438 108.609375 194.296875 108.207031 L 193.34375 107.6875 C 193.539062 105.957031 193.539062 104.230469 193.34375 102.5 L 194.292969 101.976562 C 195.019531 101.578125 195.640625 101.054688 196.152344 100.40625 C 196.664062 99.757812 197.03125 99.035156 197.25 98.234375 C 197.464844 97.453125 197.511719 96.65625 197.398438 95.851562 C 197.28125 95.046875 197.011719 94.296875 196.585938 93.605469 L 192.339844 86.570312 C 192.128906 86.234375 191.886719 85.917969 191.617188 85.628906 C 191.347656 85.335938 191.050781 85.074219 190.730469 84.835938 C 190.410156 84.601562 190.070312 84.398438 189.710938 84.226562 C 189.351562 84.054688 188.976562 83.917969 188.59375 83.820312 C 188.207031 83.71875 187.816406 83.65625 187.417969 83.628906 C 187.019531 83.601562 186.625 83.613281 186.230469 83.660156 C 185.835938 83.707031 185.445312 83.792969 185.066406 83.914062 C 184.6875 84.035156 184.324219 84.191406 183.972656 84.382812 L 182.859375 84.996094 C 181.320312 83.910156 179.679688 82.996094 177.945312 82.261719 L 177.945312 81.269531 C 177.941406 80.867188 177.898438 80.46875 177.8125 80.074219 C 177.730469 79.683594 177.609375 79.300781 177.453125 78.929688 C 177.296875 78.5625 177.101562 78.210938 176.875 77.878906 C 176.648438 77.546875 176.390625 77.242188 176.101562 76.960938 C 175.816406 76.679688 175.503906 76.429688 175.164062 76.207031 C 174.828125 75.988281 174.472656 75.800781 174.097656 75.652344 C 173.726562 75.503906 173.339844 75.390625 172.945312 75.316406 C 172.546875 75.238281 172.148438 75.203125 171.746094 75.207031 L 163.25 75.207031 C 162.847656 75.203125 162.449219 75.238281 162.050781 75.316406 C 161.65625 75.390625 161.273438 75.503906 160.898438 75.652344 C 160.523438 75.804688 160.167969 75.988281 159.832031 76.210938 C 159.496094 76.429688 159.183594 76.679688 158.894531 76.960938 C 158.609375 77.242188 158.351562 77.550781 158.125 77.878906 C 157.898438 78.210938 157.703125 78.5625 157.546875 78.933594 C 157.386719 79.300781 157.269531 79.683594 157.183594 80.078125 C 157.101562 80.46875 157.058594 80.867188 157.054688 81.269531 L 157.054688 82.265625 C 155.320312 83.003906 153.679688 83.914062 152.140625 85.003906 L 151.03125 84.390625 C 150.679688 84.203125 150.316406 84.046875 149.933594 83.925781 C 149.554688 83.800781 149.167969 83.71875 148.773438 83.667969 C 148.375 83.621094 147.980469 83.609375 147.582031 83.636719 C 147.183594 83.664062 146.792969 83.726562 146.40625 83.828125 C 146.019531 83.929688 145.648438 84.066406 145.289062 84.234375 C 144.929688 84.40625 144.589844 84.609375 144.269531 84.847656 C 143.945312 85.082031 143.652344 85.347656 143.378906 85.636719 C 143.109375 85.929688 142.867188 86.242188 142.65625 86.582031 L 138.410156 93.613281 C 137.984375 94.304688 137.714844 95.054688 137.597656 95.859375 C 137.484375 96.664062 137.53125 97.457031 137.746094 98.242188 C 137.964844 99.039062 138.328125 99.761719 138.839844 100.410156 C 139.351562 101.058594 139.972656 101.582031 140.695312 101.980469 L 141.652344 102.507812 C 141.457031 104.234375 141.457031 105.964844 141.652344 107.691406 L 140.699219 108.214844 C 139.972656 108.613281 139.347656 109.136719 138.832031 109.785156 C 138.316406 110.433594 137.949219 111.15625 137.730469 111.953125 Z M 148.570312 105.09375 C 148.570312 104.292969 148.628906 103.492188 148.742188 102.699219 C 148.820312 102.097656 148.808594 101.496094 148.707031 100.898438 C 148.601562 100.300781 148.414062 99.730469 148.136719 99.191406 C 147.859375 98.652344 147.507812 98.164062 147.085938 97.730469 C 146.660156 97.296875 146.179688 96.933594 145.644531 96.644531 L 145.023438 96.292969 L 148.273438 90.925781 L 149.148438 91.402344 C 149.683594 91.691406 150.246094 91.898438 150.839844 92.027344 C 151.429688 92.152344 152.03125 92.195312 152.632812 92.152344 C 153.238281 92.109375 153.828125 91.984375 154.394531 91.773438 C 154.964844 91.5625 155.492188 91.277344 155.980469 90.917969 C 157.277344 89.976562 158.675781 89.210938 160.171875 88.621094 C 160.746094 88.402344 161.277344 88.105469 161.761719 87.726562 C 162.25 87.351562 162.667969 86.910156 163.019531 86.40625 C 163.375 85.902344 163.644531 85.359375 163.832031 84.773438 C 164.019531 84.1875 164.117188 83.585938 164.125 82.972656 L 164.125 82.265625 L 170.871094 82.265625 L 170.871094 82.972656 C 170.878906 83.585938 170.976562 84.1875 171.164062 84.773438 C 171.351562 85.359375 171.621094 85.902344 171.976562 86.40625 C 172.328125 86.910156 172.746094 87.351562 173.234375 87.726562 C 173.71875 88.105469 174.25 88.402344 174.828125 88.621094 C 176.320312 89.21875 177.71875 89.992188 179.019531 90.945312 C 179.503906 91.304688 180.03125 91.589844 180.601562 91.796875 C 181.167969 92.007812 181.753906 92.136719 182.359375 92.179688 C 182.964844 92.222656 183.5625 92.179688 184.15625 92.050781 C 184.746094 91.925781 185.308594 91.71875 185.84375 91.429688 L 186.722656 90.949219 L 189.972656 96.316406 L 189.359375 96.652344 C 188.824219 96.941406 188.34375 97.300781 187.917969 97.734375 C 187.492188 98.171875 187.140625 98.660156 186.863281 99.199219 C 186.585938 99.738281 186.394531 100.308594 186.289062 100.90625 C 186.1875 101.507812 186.175781 102.105469 186.253906 102.707031 C 186.488281 104.304688 186.488281 105.902344 186.253906 107.5 C 186.175781 108.101562 186.1875 108.699219 186.289062 109.300781 C 186.394531 109.898438 186.585938 110.46875 186.859375 111.007812 C 187.136719 111.546875 187.488281 112.035156 187.914062 112.46875 C 188.339844 112.90625 188.820312 113.265625 189.355469 113.554688 L 189.972656 113.890625 L 186.722656 119.257812 L 185.84375 118.777344 C 185.308594 118.492188 184.746094 118.285156 184.152344 118.15625 C 183.5625 118.03125 182.960938 117.988281 182.355469 118.035156 C 181.753906 118.078125 181.167969 118.203125 180.597656 118.414062 C 180.03125 118.625 179.5 118.90625 179.015625 119.265625 C 177.71875 120.21875 176.320312 120.988281 174.828125 121.585938 C 174.25 121.804688 173.71875 122.101562 173.234375 122.480469 C 172.75 122.859375 172.328125 123.296875 171.976562 123.800781 C 171.625 124.304688 171.351562 124.851562 171.164062 125.433594 C 170.976562 126.019531 170.878906 126.621094 170.871094 127.234375 L 170.871094 127.941406 L 164.125 127.941406 L 164.125 127.234375 C 164.117188 126.621094 164.019531 126.019531 163.832031 125.433594 C 163.644531 124.851562 163.371094 124.304688 163.019531 123.800781 C 162.667969 123.296875 162.25 122.859375 161.761719 122.480469 C 161.277344 122.101562 160.746094 121.804688 160.171875 121.585938 C 158.675781 120.988281 157.277344 120.214844 155.980469 119.261719 C 155.492188 118.90625 154.960938 118.621094 154.394531 118.410156 C 153.824219 118.203125 153.238281 118.078125 152.636719 118.03125 C 152.03125 117.988281 151.433594 118.03125 150.839844 118.15625 C 150.246094 118.285156 149.683594 118.492188 149.148438 118.777344 L 148.273438 119.257812 L 145.023438 113.890625 L 145.640625 113.554688 C 146.175781 113.265625 146.65625 112.90625 147.082031 112.46875 C 147.507812 112.035156 147.859375 111.546875 148.136719 111.007812 C 148.414062 110.46875 148.601562 109.898438 148.707031 109.300781 C 148.808594 108.699219 148.820312 108.101562 148.742188 107.5 C 148.625 106.703125 148.570312 105.898438 148.570312 105.09375 Z M 148.570312 105.09375 " fill-opacity="1" fill-rule="nonzero"/><path fill="#ffffff" d="M 167.5 116.859375 C 168.273438 116.859375 169.039062 116.785156 169.800781 116.632812 C 170.5625 116.484375 171.300781 116.261719 172.015625 115.964844 C 172.730469 115.667969 173.414062 115.308594 174.058594 114.878906 C 174.703125 114.449219 175.296875 113.960938 175.847656 113.414062 C 176.394531 112.867188 176.882812 112.273438 177.3125 111.632812 C 177.746094 110.988281 178.109375 110.308594 178.40625 109.597656 C 178.703125 108.882812 178.925781 108.148438 179.078125 107.386719 C 179.230469 106.628906 179.304688 105.867188 179.304688 105.09375 C 179.304688 104.320312 179.230469 103.554688 179.078125 102.796875 C 178.925781 102.039062 178.703125 101.300781 178.40625 100.589844 C 178.109375 99.875 177.746094 99.195312 177.316406 98.554688 C 176.886719 97.910156 176.394531 97.316406 175.847656 96.769531 C 175.300781 96.222656 174.703125 95.734375 174.058594 95.304688 C 173.414062 94.875 172.734375 94.515625 172.019531 94.21875 C 171.300781 93.921875 170.5625 93.699219 169.804688 93.546875 C 169.042969 93.398438 168.277344 93.324219 167.5 93.324219 C 166.726562 93.324219 165.957031 93.398438 165.199219 93.550781 C 164.4375 93.699219 163.699219 93.921875 162.984375 94.21875 C 162.265625 94.515625 161.585938 94.878906 160.941406 95.308594 C 160.296875 95.738281 159.703125 96.226562 159.152344 96.769531 C 158.605469 97.316406 158.117188 97.914062 157.6875 98.554688 C 157.257812 99.199219 156.894531 99.875 156.597656 100.589844 C 156.300781 101.304688 156.074219 102.039062 155.925781 102.796875 C 155.773438 103.554688 155.699219 104.320312 155.699219 105.09375 C 155.699219 105.867188 155.777344 106.632812 155.929688 107.390625 C 156.078125 108.144531 156.304688 108.882812 156.601562 109.59375 C 156.898438 110.308594 157.261719 110.984375 157.691406 111.628906 C 158.121094 112.269531 158.609375 112.863281 159.160156 113.410156 C 159.707031 113.957031 160.300781 114.445312 160.945312 114.871094 C 161.589844 115.300781 162.269531 115.664062 162.984375 115.960938 C 163.699219 116.257812 164.4375 116.480469 165.195312 116.632812 C 165.957031 116.78125 166.722656 116.859375 167.5 116.859375 Z M 167.5 100.386719 C 167.808594 100.386719 168.117188 100.414062 168.417969 100.476562 C 168.722656 100.535156 169.019531 100.625 169.304688 100.742188 C 169.59375 100.859375 169.863281 101.007812 170.121094 101.179688 C 170.382812 101.347656 170.621094 101.542969 170.839844 101.761719 C 171.058594 101.980469 171.253906 102.21875 171.425781 102.476562 C 171.597656 102.734375 171.746094 103.003906 171.863281 103.289062 C 171.984375 103.574219 172.074219 103.871094 172.132812 104.171875 C 172.195312 104.476562 172.222656 104.785156 172.222656 105.09375 C 172.222656 105.402344 172.195312 105.707031 172.132812 106.011719 C 172.074219 106.316406 171.984375 106.609375 171.867188 106.894531 C 171.746094 107.179688 171.601562 107.453125 171.429688 107.710938 C 171.257812 107.964844 171.0625 108.203125 170.84375 108.421875 C 170.625 108.640625 170.382812 108.835938 170.125 109.007812 C 169.867188 109.179688 169.597656 109.328125 169.308594 109.445312 C 169.023438 109.5625 168.730469 109.652344 168.425781 109.710938 C 168.121094 109.773438 167.8125 109.804688 167.503906 109.804688 C 167.191406 109.804688 166.886719 109.773438 166.582031 109.714844 C 166.277344 109.652344 165.980469 109.5625 165.695312 109.445312 C 165.410156 109.328125 165.136719 109.183594 164.878906 109.011719 C 164.621094 108.839844 164.382812 108.644531 164.164062 108.425781 C 163.945312 108.207031 163.746094 107.96875 163.574219 107.710938 C 163.402344 107.453125 163.257812 107.183594 163.140625 106.898438 C 163.019531 106.613281 162.929688 106.316406 162.871094 106.011719 C 162.808594 105.710938 162.777344 105.402344 162.777344 105.09375 C 162.78125 104.785156 162.808594 104.480469 162.871094 104.175781 C 162.929688 103.875 163.019531 103.578125 163.140625 103.292969 C 163.257812 103.007812 163.402344 102.738281 163.574219 102.480469 C 163.746094 102.222656 163.941406 101.984375 164.164062 101.765625 C 164.382812 101.550781 164.621094 101.355469 164.878906 101.183594 C 165.132812 101.011719 165.40625 100.863281 165.691406 100.746094 C 165.980469 100.628906 166.273438 100.539062 166.578125 100.476562 C 166.882812 100.417969 167.1875 100.386719 167.5 100.386719 Z M 167.5 100.386719 " fill-opacity="1" fill-rule="nonzero"/><path fill="#ffffff" d="M 144.132812 148.894531 L 144.132812 167.691406 C 144.132812 168.453125 144.171875 169.214844 144.246094 169.972656 C 144.320312 170.734375 144.433594 171.484375 144.582031 172.234375 C 144.730469 172.984375 144.917969 173.722656 145.140625 174.453125 C 145.363281 175.183594 145.617188 175.898438 145.910156 176.605469 C 146.203125 177.308594 146.53125 178 146.890625 178.671875 C 147.253906 179.34375 147.644531 180 148.070312 180.632812 C 148.496094 181.265625 148.953125 181.878906 149.4375 182.46875 C 149.921875 183.058594 150.433594 183.625 150.976562 184.164062 C 151.519531 184.703125 152.085938 185.214844 152.675781 185.699219 C 153.265625 186.183594 153.882812 186.636719 154.515625 187.058594 C 155.152344 187.484375 155.808594 187.875 156.484375 188.234375 C 157.160156 188.59375 157.851562 188.921875 158.558594 189.214844 C 159.265625 189.503906 159.984375 189.761719 160.714844 189.984375 C 161.449219 190.203125 162.1875 190.390625 162.941406 190.539062 C 163.691406 190.6875 164.445312 190.800781 165.207031 190.875 C 165.96875 190.949219 166.734375 190.988281 167.5 190.988281 C 168.261719 190.988281 169.027344 190.949219 169.789062 190.875 C 170.550781 190.800781 171.304688 190.6875 172.054688 190.539062 C 172.808594 190.390625 173.546875 190.203125 174.28125 189.984375 C 175.011719 189.761719 175.734375 189.503906 176.441406 189.214844 C 177.148438 188.921875 177.835938 188.59375 178.511719 188.234375 C 179.1875 187.875 179.84375 187.484375 180.480469 187.058594 C 181.117188 186.636719 181.730469 186.183594 182.320312 185.699219 C 182.914062 185.214844 183.480469 184.703125 184.019531 184.164062 C 184.5625 183.625 185.074219 183.058594 185.558594 182.46875 C 186.046875 181.878906 186.5 181.265625 186.925781 180.632812 C 187.351562 180 187.742188 179.34375 188.105469 178.671875 C 188.464844 178 188.792969 177.308594 189.085938 176.605469 C 189.378906 175.898438 189.636719 175.183594 189.855469 174.453125 C 190.078125 173.722656 190.265625 172.984375 190.414062 172.234375 C 190.5625 171.484375 190.675781 170.734375 190.75 169.972656 C 190.824219 169.214844 190.863281 168.453125 190.863281 167.691406 L 190.863281 148.890625 C 192.84375 147.832031 194.742188 146.648438 196.5625 145.335938 C 198.382812 144.027344 200.109375 142.597656 201.734375 141.054688 C 203.363281 139.511719 204.878906 137.867188 206.285156 136.121094 C 207.691406 134.375 208.972656 132.542969 210.132812 130.625 C 211.289062 128.703125 212.3125 126.71875 213.203125 124.660156 C 214.09375 122.605469 214.839844 120.5 215.445312 118.34375 C 216.050781 116.1875 216.507812 114 216.820312 111.78125 C 217.128906 109.5625 217.289062 107.335938 217.296875 105.09375 C 217.296875 103.417969 217.210938 101.746094 217.042969 100.078125 C 216.871094 98.410156 216.617188 96.757812 216.28125 95.113281 C 215.941406 93.472656 215.523438 91.851562 215.019531 90.253906 C 214.515625 88.652344 213.933594 87.082031 213.273438 85.542969 C 212.609375 84 211.871094 82.496094 211.058594 81.03125 C 210.242188 79.566406 209.355469 78.144531 208.398438 76.765625 C 207.4375 75.390625 206.410156 74.066406 205.316406 72.792969 C 204.222656 71.519531 203.070312 70.304688 201.851562 69.148438 C 200.636719 67.992188 199.363281 66.898438 198.035156 65.871094 C 196.707031 64.84375 195.328125 63.886719 193.90625 62.996094 C 192.480469 62.109375 191.011719 61.292969 189.503906 60.550781 C 187.996094 59.8125 186.453125 59.148438 184.878906 58.5625 C 183.304688 57.976562 181.703125 57.472656 180.078125 57.050781 C 178.449219 56.625 176.804688 56.285156 175.144531 56.027344 C 173.484375 55.769531 171.8125 55.597656 170.136719 55.507812 C 168.457031 55.421875 166.777344 55.417969 165.097656 55.496094 C 163.746094 55.5625 162.402344 55.679688 161.0625 55.851562 C 159.722656 56.027344 158.390625 56.253906 157.070312 56.535156 C 155.746094 56.816406 154.4375 57.152344 153.144531 57.539062 C 151.847656 57.929688 150.574219 58.367188 149.3125 58.859375 C 148.054688 59.351562 146.820312 59.894531 145.605469 60.484375 C 144.390625 61.078125 143.203125 61.71875 142.039062 62.40625 C 140.878906 63.09375 139.746094 63.828125 138.644531 64.609375 C 137.542969 65.390625 136.476562 66.214844 135.441406 67.082031 C 134.40625 67.949219 133.40625 68.855469 132.449219 69.804688 C 131.488281 70.753906 130.566406 71.738281 129.6875 72.761719 C 128.808594 73.785156 127.972656 74.84375 127.175781 75.933594 C 126.382812 77.023438 125.636719 78.148438 124.933594 79.296875 C 124.234375 80.449219 123.578125 81.628906 122.972656 82.832031 C 122.367188 84.039062 121.8125 85.265625 121.308594 86.515625 C 120.800781 87.765625 120.347656 89.035156 119.945312 90.320312 C 119.546875 91.609375 119.195312 92.910156 118.902344 94.226562 C 118.605469 95.539062 118.367188 96.863281 118.179688 98.199219 C 117.992188 99.535156 117.859375 100.875 117.78125 102.21875 C 117.703125 103.566406 117.683594 104.914062 117.714844 106.261719 C 117.746094 107.605469 117.835938 108.949219 117.976562 110.292969 C 118.121094 111.632812 118.316406 112.964844 118.566406 114.289062 C 118.820312 115.613281 119.125 116.925781 119.484375 118.222656 C 119.839844 119.523438 120.25 120.804688 120.714844 122.070312 C 121.179688 123.339844 121.691406 124.582031 122.257812 125.808594 C 122.824219 127.03125 123.4375 128.230469 124.101562 129.40625 C 124.761719 130.582031 125.472656 131.726562 126.230469 132.84375 C 126.988281 133.960938 127.789062 135.042969 128.632812 136.09375 C 129.476562 137.148438 130.363281 138.164062 131.292969 139.144531 C 132.222656 140.121094 133.1875 141.0625 134.195312 141.964844 C 135.199219 142.863281 136.238281 143.722656 137.3125 144.539062 C 138.390625 145.355469 139.496094 146.128906 140.632812 146.855469 C 141.773438 147.582031 142.9375 148.261719 144.132812 148.894531 Z M 167.5 183.925781 C 166.671875 183.925781 165.855469 183.859375 165.039062 183.734375 C 164.226562 183.609375 163.425781 183.421875 162.636719 183.171875 C 161.851562 182.925781 161.089844 182.621094 160.347656 182.257812 C 159.609375 181.894531 158.902344 181.476562 158.226562 181.007812 C 157.550781 180.535156 156.914062 180.015625 156.316406 179.449219 C 155.71875 178.882812 155.167969 178.273438 154.664062 177.625 C 154.160156 176.976562 153.707031 176.289062 153.304688 175.570312 C 152.90625 174.851562 152.5625 174.109375 152.277344 173.335938 L 182.722656 173.335938 C 182.433594 174.109375 182.089844 174.851562 181.691406 175.570312 C 181.289062 176.289062 180.835938 176.976562 180.332031 177.625 C 179.828125 178.273438 179.277344 178.882812 178.679688 179.449219 C 178.082031 180.015625 177.445312 180.535156 176.769531 181.007812 C 176.09375 181.476562 175.386719 181.894531 174.648438 182.257812 C 173.90625 182.621094 173.144531 182.925781 172.359375 183.171875 C 171.570312 183.421875 170.773438 183.609375 169.957031 183.734375 C 169.140625 183.859375 168.324219 183.925781 167.5 183.925781 Z M 183.78125 166.277344 L 151.214844 166.277344 L 151.214844 158.042969 L 183.78125 158.042969 Z M 124.957031 101.175781 C 125.074219 99.914062 125.25 98.65625 125.480469 97.40625 C 125.710938 96.160156 126 94.921875 126.339844 93.699219 C 126.683594 92.476562 127.078125 91.269531 127.527344 90.082031 C 127.976562 88.894531 128.480469 87.730469 129.035156 86.585938 C 129.589844 85.441406 130.191406 84.328125 130.847656 83.238281 C 131.5 82.148438 132.203125 81.089844 132.953125 80.0625 C 133.699219 79.035156 134.492188 78.042969 135.332031 77.089844 C 136.167969 76.132812 137.046875 75.214844 137.96875 74.335938 C 138.886719 73.457031 139.847656 72.625 140.839844 71.832031 C 141.835938 71.039062 142.863281 70.289062 143.925781 69.589844 C 144.988281 68.886719 146.078125 68.234375 147.199219 67.632812 C 148.320312 67.027344 149.464844 66.476562 150.632812 65.972656 C 151.804688 65.46875 152.992188 65.023438 154.203125 64.625 C 155.414062 64.230469 156.636719 63.886719 157.878906 63.601562 C 159.117188 63.3125 160.371094 63.082031 161.632812 62.90625 C 162.890625 62.730469 164.160156 62.613281 165.429688 62.550781 C 166.140625 62.515625 166.820312 62.5 167.511719 62.5 C 168.910156 62.5 170.308594 62.570312 171.699219 62.707031 C 173.089844 62.84375 174.472656 63.046875 175.84375 63.320312 C 177.214844 63.59375 178.570312 63.929688 179.910156 64.335938 C 181.25 64.742188 182.5625 65.210938 183.855469 65.746094 C 185.148438 66.28125 186.410156 66.875 187.644531 67.53125 C 188.878906 68.191406 190.078125 68.90625 191.238281 69.683594 C 192.402344 70.457031 193.523438 71.289062 194.605469 72.171875 C 195.6875 73.058594 196.722656 73.992188 197.710938 74.980469 C 198.699219 75.964844 199.636719 77 200.527344 78.078125 C 201.414062 79.15625 202.246094 80.273438 203.023438 81.433594 C 203.800781 82.59375 204.515625 83.789062 205.175781 85.019531 C 205.835938 86.25 206.433594 87.507812 206.96875 88.796875 C 207.503906 90.085938 207.972656 91.398438 208.378906 92.730469 C 208.785156 94.066406 209.125 95.417969 209.398438 96.785156 C 209.671875 98.15625 209.875 99.53125 210.011719 100.921875 C 210.148438 102.308594 210.21875 103.699219 210.21875 105.09375 C 210.207031 107.097656 210.058594 109.089844 209.769531 111.070312 C 209.480469 113.050781 209.054688 115.003906 208.492188 116.925781 C 207.925781 118.847656 207.230469 120.71875 206.402344 122.542969 C 205.578125 124.367188 204.625 126.125 203.550781 127.816406 C 202.476562 129.507812 201.289062 131.117188 199.988281 132.640625 C 198.683594 134.167969 197.285156 135.59375 195.78125 136.921875 C 194.28125 138.253906 192.691406 139.46875 191.019531 140.578125 C 189.34375 141.683594 187.601562 142.667969 185.789062 143.53125 C 185.175781 143.824219 184.6875 144.257812 184.320312 144.828125 C 183.957031 145.402344 183.773438 146.03125 183.773438 146.707031 L 183.773438 150.972656 L 151.214844 150.972656 L 151.214844 146.71875 C 151.210938 146.039062 151.027344 145.414062 150.664062 144.839844 C 150.300781 144.265625 149.808594 143.832031 149.195312 143.542969 C 147.226562 142.621094 145.335938 141.554688 143.53125 140.34375 C 141.722656 139.132812 140.019531 137.792969 138.421875 136.320312 C 136.824219 134.847656 135.34375 133.265625 133.992188 131.566406 C 132.636719 129.867188 131.417969 128.074219 130.339844 126.191406 C 129.261719 124.304688 128.335938 122.347656 127.558594 120.324219 C 126.78125 118.296875 126.164062 116.222656 125.707031 114.097656 C 125.25 111.976562 124.960938 109.832031 124.832031 107.667969 C 124.707031 105.5 124.75 103.335938 124.957031 101.175781 Z M 124.957031 101.175781 " fill-opacity="1" fill-rule="nonzero"/><path fill="#ffffff" d="M 118.265625 60.996094 L 123.273438 56.003906 L 130.28125 62.992188 L 125.273438 67.984375 Z M 118.265625 60.996094 " fill-opacity="1" fill-rule="nonzero"/><g clip-path="url(#db2ae5e286)"><path fill="#ffffff" d="M 232.097656 6.582031 L 212.082031 1.542969 C 211.464844 1.390625 210.851562 1.402344 210.238281 1.578125 C 209.625 1.753906 209.101562 2.074219 208.660156 2.53125 C 208.222656 2.992188 207.929688 3.53125 207.78125 4.148438 C 207.632812 4.765625 207.652344 5.378906 207.835938 5.988281 L 209.894531 12.796875 C 196.683594 16.890625 181.574219 20.621094 166.878906 24.246094 C 149.945312 28.421875 132.441406 32.738281 117.710938 37.660156 C 98.03125 44.179688 75.453125 53.917969 75.453125 71.378906 C 75.453125 87.503906 94.941406 96.742188 109.601562 102.289062 L 112.109375 95.679688 C 92.210938 88.160156 82.535156 80.207031 82.535156 71.378906 C 82.535156 61.550781 94.769531 52.703125 119.941406 44.34375 C 134.410156 39.523438 151.777344 35.238281 168.558594 31.085938 C 183.328125 27.441406 198.527344 23.671875 211.921875 19.542969 L 213.953125 26.25 C 214.136719 26.859375 214.460938 27.378906 214.929688 27.8125 C 215.394531 28.246094 215.9375 28.535156 216.5625 28.671875 C 216.816406 28.730469 217.078125 28.757812 217.339844 28.757812 C 218.382812 28.757812 219.257812 28.371094 219.960938 27.601562 L 233.851562 12.375 C 234.058594 12.148438 234.230469 11.902344 234.371094 11.628906 C 234.511719 11.359375 234.617188 11.074219 234.683594 10.777344 C 234.75 10.480469 234.777344 10.179688 234.765625 9.875 C 234.753906 9.566406 234.703125 9.269531 234.613281 8.976562 C 234.527344 8.6875 234.402344 8.410156 234.238281 8.148438 C 234.078125 7.890625 233.886719 7.65625 233.664062 7.445312 C 233.441406 7.234375 233.199219 7.058594 232.929688 6.910156 C 232.660156 6.765625 232.378906 6.652344 232.082031 6.582031 Z M 218.933594 18.253906 L 216.410156 9.90625 L 224.644531 11.980469 Z M 218.933594 18.253906 " fill-opacity="1" fill-rule="nonzero"/></g><g fill="#ffffff" fill-opacity="1"><g transform="translate(0.364764, 296.392354)"><g><path d="M 5.375 -50.328125 L 37.296875 -50.328125 L 37.296875 -37.171875 L 31.9375 -37.171875 L 31.9375 -44.953125 L 16.234375 -44.953125 L 16.234375 -27.84375 L 31.9375 -27.84375 L 31.9375 -22.46875 L 16.234375 -22.46875 L 16.234375 -5.375 L 31.9375 -5.375 L 31.9375 -13.15625 L 37.296875 -13.15625 L 37.296875 0 L 5.375 0 L 5.375 -5.375 L 10.0625 -5.375 L 10.0625 -44.953125 L 5.375 -44.953125 Z M 5.375 -50.328125 "/></g></g></g><g fill="#ffffff" fill-opacity="1"><g transform="translate(43.011407, 296.392354)"><g><path d="M 16.234375 -5.375 L 20.9375 -5.375 L 20.9375 0 L 5.375 0 L 5.375 -5.375 L 10.0625 -5.375 L 10.0625 -44.953125 L 5.375 -44.953125 L 5.375 -50.328125 L 19.328125 -50.328125 L 38.921875 -7.578125 L 38.921875 -44.953125 L 34.21875 -44.953125 L 34.21875 -50.328125 L 49.78125 -50.328125 L 49.78125 -44.953125 L 45.09375 -44.953125 L 45.09375 0 L 35.828125 0 L 16.234375 -42.671875 Z M 16.234375 -5.375 "/></g></g></g><g fill="#ffffff" fill-opacity="1"><g transform="translate(97.45963, 296.392354)"><g><path d="M 1.34375 -44.953125 L 1.34375 -50.328125 L 15.5625 -50.328125 L 15.5625 -44.953125 L 10.9375 -44.953125 L 23.015625 -6.109375 L 35.15625 -44.953125 L 30.53125 -44.953125 L 30.53125 -50.328125 L 44.75 -50.328125 L 44.75 -44.953125 L 41.328125 -44.953125 L 27.3125 0 L 18.78125 0 L 4.765625 -44.953125 Z M 1.34375 -44.953125 "/></g></g></g><g fill="#ffffff" fill-opacity="1"><g transform="translate(143.526025, 296.392354)"><g><path d="M 4.703125 -5.375 L 10.0625 -5.375 L 10.0625 -44.953125 L 4.703125 -44.953125 L 4.703125 -50.328125 L 21.609375 -50.328125 L 21.609375 -44.953125 L 16.234375 -44.953125 L 16.234375 -5.375 L 21.609375 -5.375 L 21.609375 0 L 4.703125 0 Z M 4.703125 -5.375 "/></g></g></g><g fill="#ffffff" fill-opacity="1"><g transform="translate(169.811365, 296.392354)"><g><path d="M 34.890625 -34.484375 L 29.3125 -34.484375 L 29.3125 -40.390625 L 25.296875 -44.546875 L 15.03125 -44.546875 L 11.546875 -41 L 11.546875 -31.734375 L 14.828125 -28.375 L 28.78125 -28.375 L 35.5625 -21.265625 L 35.5625 -7.375 L 28.578125 0 L 11.671875 0 L 4.703125 -7.375 L 4.703125 -15.828125 L 10.265625 -15.828125 L 10.265625 -9.9375 L 14.359375 -5.765625 L 25.96875 -5.765625 L 29.390625 -9.328125 L 29.390625 -19.328125 L 26.171875 -22.609375 L 12.21875 -22.609375 L 5.375 -29.796875 L 5.375 -42.9375 L 12.34375 -50.328125 L 27.90625 -50.328125 L 34.890625 -42.9375 Z M 34.890625 -34.484375 "/></g></g></g><g fill="#ffffff" fill-opacity="1"><g transform="translate(210.044028, 296.392354)"><g><path d="M 4.703125 -5.375 L 10.0625 -5.375 L 10.0625 -44.953125 L 4.703125 -44.953125 L 4.703125 -50.328125 L 21.609375 -50.328125 L 21.609375 -44.953125 L 16.234375 -44.953125 L 16.234375 -5.375 L 21.609375 -5.375 L 21.609375 0 L 4.703125 0 Z M 4.703125 -5.375 "/></g></g></g><g fill="#ffffff" fill-opacity="1"><g transform="translate(236.329368, 296.392354)"><g><path d="M 12.34375 0 L 5.375 -7.375 L 5.375 -42.9375 L 12.34375 -50.328125 L 31.265625 -50.328125 L 38.25 -42.9375 L 38.25 -7.375 L 31.265625 0 Z M 14.96875 -5.765625 L 28.578125 -5.765625 L 32.078125 -9.328125 L 32.078125 -41 L 28.65625 -44.546875 L 15.03125 -44.546875 L 11.546875 -41 L 11.546875 -9.328125 Z M 14.96875 -5.765625 "/></g></g></g><g fill="#ffffff" fill-opacity="1"><g transform="translate(279.914762, 296.392354)"><g><path d="M 16.234375 -5.375 L 20.9375 -5.375 L 20.9375 0 L 5.375 0 L 5.375 -5.375 L 10.0625 -5.375 L 10.0625 -44.953125 L 5.375 -44.953125 L 5.375 -50.328125 L 19.328125 -50.328125 L 38.921875 -7.578125 L 38.921875 -44.953125 L 34.21875 -44.953125 L 34.21875 -50.328125 L 49.78125 -50.328125 L 49.78125 -44.953125 L 45.09375 -44.953125 L 45.09375 0 L 35.828125 0 L 16.234375 -42.671875 Z M 16.234375 -5.375 "/></g></g></g></svg>