<svg xmlns="http://www.w3.org/2000/svg" xmlns:xlink="http://www.w3.org/1999/xlink" width="145" zoomAndPan="magnify" viewBox="0 0 108.75 129.000003" height="172" preserveAspectRatio="xMidYMid meet" version="1.0"><defs><g/><clipPath id="f2ac1fb410"><path d="M 25 73 L 108.109375 73 L 108.109375 127.851562 L 25 127.851562 Z M 25 73 " clip-rule="nonzero"/></clipPath><clipPath id="e77bcded08"><path d="M 0.691406 0.292969 L 94 0.292969 L 94 60 L 0.691406 60 Z M 0.691406 0.292969 " clip-rule="nonzero"/></clipPath></defs><g clip-path="url(#f2ac1fb410)"><path fill="#ffffff" d="M 108.109375 92.53125 C 108.109375 82.722656 95.539062 77.097656 86.082031 73.722656 L 84.6875 77.601562 C 97.667969 82.234375 103.976562 87.121094 103.976562 92.53125 C 103.976562 98.355469 97.039062 103.386719 82.152344 108.363281 C 73.78125 111.136719 63.738281 113.617188 54.027344 116.011719 C 44.152344 118.449219 33.9375 120.96875 25.34375 123.839844 L 26.652344 127.757812 C 35.089844 124.945312 45.222656 122.445312 55.019531 120.027344 C 64.816406 117.609375 74.929688 115.113281 83.460938 112.285156 C 94.933594 108.4375 108.109375 102.722656 108.109375 92.53125 Z M 108.109375 92.53125 " fill-opacity="1" fill-rule="nonzero"/></g><path fill="#ffffff" d="M 76.113281 36.648438 L 80.203125 32.566406 L 83.125 35.480469 L 79.035156 39.5625 Z M 76.113281 36.648438 " fill-opacity="1" fill-rule="nonzero"/><path fill="#ffffff" d="M 52.335938 22.757812 L 56.464844 22.757812 L 56.464844 28.527344 L 52.335938 28.527344 Z M 52.335938 22.757812 " fill-opacity="1" fill-rule="nonzero"/><path fill="#ffffff" d="M 37.03125 65.226562 C 36.769531 66.183594 36.898438 67.082031 37.414062 67.925781 L 39.894531 72.03125 C 40.140625 72.433594 40.449219 72.773438 40.828125 73.054688 C 41.207031 73.335938 41.625 73.535156 42.078125 73.65625 C 42.535156 73.773438 42.996094 73.804688 43.460938 73.746094 C 43.929688 73.683594 44.367188 73.542969 44.78125 73.3125 L 45.429688 72.953125 C 46.328125 73.589844 47.28125 74.121094 48.296875 74.550781 L 48.296875 75.132812 C 48.300781 75.605469 48.398438 76.058594 48.582031 76.492188 C 48.769531 76.929688 49.03125 77.3125 49.371094 77.644531 C 49.710938 77.976562 50.097656 78.230469 50.539062 78.40625 C 50.980469 78.585938 51.4375 78.671875 51.910156 78.667969 L 56.878906 78.667969 C 57.351562 78.671875 57.808594 78.585938 58.25 78.40625 C 58.691406 78.230469 59.078125 77.976562 59.417969 77.644531 C 59.757812 77.3125 60.019531 76.929688 60.207031 76.492188 C 60.390625 76.058594 60.488281 75.605469 60.492188 75.132812 L 60.492188 74.550781 C 61.507812 74.121094 62.460938 73.589844 63.359375 72.953125 L 64.011719 73.3125 C 64.421875 73.542969 64.863281 73.6875 65.328125 73.746094 C 65.796875 73.804688 66.257812 73.773438 66.710938 73.65625 C 67.167969 73.535156 67.585938 73.335938 67.960938 73.054688 C 68.339844 72.773438 68.648438 72.433594 68.894531 72.03125 L 71.375 67.925781 C 71.890625 67.082031 72.019531 66.183594 71.761719 65.226562 C 71.496094 64.253906 70.921875 63.527344 70.039062 63.039062 L 69.480469 62.734375 C 69.59375 61.726562 69.59375 60.714844 69.480469 59.707031 L 70.035156 59.402344 C 70.917969 58.917969 71.496094 58.191406 71.761719 57.21875 C 72.019531 56.261719 71.890625 55.359375 71.375 54.515625 L 68.894531 50.410156 C 68.648438 50.011719 68.332031 49.675781 67.957031 49.398438 C 67.578125 49.121094 67.164062 48.921875 66.707031 48.800781 C 66.253906 48.683594 65.796875 48.652344 65.328125 48.710938 C 64.863281 48.765625 64.425781 48.90625 64.011719 49.128906 L 63.363281 49.488281 C 62.464844 48.855469 61.507812 48.320312 60.496094 47.890625 L 60.496094 47.3125 C 60.492188 46.839844 60.394531 46.386719 60.207031 45.949219 C 60.023438 45.511719 59.757812 45.128906 59.421875 44.796875 C 59.082031 44.464844 58.691406 44.210938 58.25 44.035156 C 57.8125 43.859375 57.355469 43.769531 56.878906 43.777344 L 51.921875 43.777344 C 51.445312 43.773438 50.988281 43.859375 50.550781 44.035156 C 50.109375 44.214844 49.71875 44.46875 49.378906 44.800781 C 49.042969 45.128906 48.777344 45.515625 48.59375 45.949219 C 48.40625 46.386719 48.3125 46.839844 48.304688 47.3125 L 48.304688 47.898438 C 47.292969 48.328125 46.335938 48.859375 45.4375 49.492188 L 44.789062 49.136719 C 44.378906 48.914062 43.9375 48.773438 43.472656 48.714844 C 43.007812 48.65625 42.546875 48.6875 42.09375 48.808594 C 41.640625 48.925781 41.222656 49.125 40.84375 49.402344 C 40.46875 49.679688 40.152344 50.015625 39.90625 50.414062 L 37.425781 54.519531 C 36.910156 55.363281 36.78125 56.265625 37.039062 57.222656 C 37.304688 58.191406 37.878906 58.917969 38.761719 59.40625 L 39.320312 59.710938 C 39.207031 60.722656 39.207031 61.730469 39.320312 62.738281 L 38.761719 63.042969 C 37.875 63.527344 37.296875 64.253906 37.03125 65.226562 Z M 43.355469 61.222656 C 43.355469 60.753906 43.390625 60.289062 43.457031 59.824219 C 43.503906 59.472656 43.496094 59.121094 43.433594 58.773438 C 43.375 58.425781 43.261719 58.09375 43.101562 57.777344 C 42.941406 57.460938 42.734375 57.175781 42.488281 56.921875 C 42.242188 56.667969 41.960938 56.457031 41.648438 56.289062 L 41.285156 56.082031 L 43.183594 52.949219 L 43.695312 53.230469 C 44.328125 53.574219 45.007812 53.71875 45.726562 53.667969 C 46.449219 53.617188 47.097656 53.375 47.679688 52.945312 C 48.4375 52.398438 49.253906 51.949219 50.125 51.605469 C 50.460938 51.476562 50.769531 51.304688 51.054688 51.085938 C 51.335938 50.863281 51.582031 50.605469 51.789062 50.3125 C 51.992188 50.019531 52.152344 49.699219 52.261719 49.359375 C 52.371094 49.015625 52.425781 48.667969 52.429688 48.308594 L 52.429688 47.898438 L 56.367188 47.898438 L 56.367188 48.308594 C 56.371094 48.667969 56.429688 49.015625 56.539062 49.359375 C 56.648438 49.699219 56.804688 50.019531 57.011719 50.3125 C 57.21875 50.605469 57.460938 50.863281 57.746094 51.085938 C 58.03125 51.304688 58.339844 51.476562 58.675781 51.605469 C 59.546875 51.953125 60.363281 52.40625 61.121094 52.960938 C 61.703125 53.390625 62.351562 53.628906 63.070312 53.683594 C 63.792969 53.734375 64.46875 53.589844 65.105469 53.246094 L 65.617188 52.964844 L 67.511719 56.097656 L 67.15625 56.292969 C 66.84375 56.460938 66.5625 56.671875 66.3125 56.925781 C 66.066406 57.179688 65.859375 57.464844 65.699219 57.78125 C 65.539062 58.097656 65.425781 58.429688 65.367188 58.777344 C 65.304688 59.128906 65.296875 59.476562 65.34375 59.828125 C 65.480469 60.761719 65.480469 61.695312 65.34375 62.625 C 65.296875 62.976562 65.304688 63.328125 65.363281 63.675781 C 65.425781 64.027344 65.535156 64.359375 65.699219 64.675781 C 65.859375 64.988281 66.066406 65.273438 66.3125 65.527344 C 66.5625 65.78125 66.839844 65.992188 67.152344 66.160156 L 67.511719 66.355469 L 65.617188 69.488281 L 65.105469 69.210938 C 64.46875 68.867188 63.789062 68.722656 63.070312 68.777344 C 62.351562 68.828125 61.699219 69.066406 61.121094 69.496094 C 60.363281 70.050781 59.546875 70.5 58.675781 70.847656 C 58.339844 70.976562 58.03125 71.152344 57.746094 71.371094 C 57.464844 71.589844 57.21875 71.847656 57.011719 72.144531 C 56.808594 72.4375 56.648438 72.753906 56.539062 73.097656 C 56.429688 73.4375 56.371094 73.789062 56.367188 74.144531 L 56.367188 74.558594 L 52.429688 74.558594 L 52.429688 74.144531 C 52.425781 73.789062 52.371094 73.4375 52.261719 73.097656 C 52.152344 72.753906 51.992188 72.4375 51.785156 72.144531 C 51.582031 71.847656 51.335938 71.589844 51.054688 71.371094 C 50.769531 71.152344 50.460938 70.976562 50.125 70.847656 C 49.25 70.5 48.4375 70.050781 47.679688 69.492188 C 47.097656 69.066406 46.445312 68.828125 45.726562 68.773438 C 45.007812 68.722656 44.328125 68.867188 43.695312 69.210938 L 43.183594 69.488281 L 41.285156 66.355469 L 41.644531 66.160156 C 41.957031 65.992188 42.238281 65.78125 42.488281 65.527344 C 42.734375 65.273438 42.941406 64.988281 43.101562 64.675781 C 43.261719 64.359375 43.375 64.027344 43.433594 63.675781 C 43.496094 63.328125 43.503906 62.976562 43.457031 62.625 C 43.386719 62.160156 43.355469 61.691406 43.355469 61.222656 Z M 43.355469 61.222656 " fill-opacity="1" fill-rule="nonzero"/><path fill="#ffffff" d="M 54.398438 68.089844 C 54.851562 68.089844 55.300781 68.046875 55.742188 67.957031 C 56.1875 67.871094 56.617188 67.742188 57.035156 67.566406 C 57.453125 67.394531 57.851562 67.183594 58.226562 66.933594 C 58.601562 66.683594 58.949219 66.398438 59.269531 66.078125 C 59.589844 65.761719 59.875 65.414062 60.128906 65.039062 C 60.378906 64.664062 60.589844 64.265625 60.765625 63.851562 C 60.9375 63.433594 61.066406 63.003906 61.15625 62.5625 C 61.246094 62.117188 61.289062 61.671875 61.289062 61.222656 C 61.289062 60.769531 61.246094 60.324219 61.15625 59.878906 C 61.070312 59.4375 60.9375 59.007812 60.765625 58.589844 C 60.59375 58.175781 60.378906 57.777344 60.128906 57.402344 C 59.878906 57.027344 59.589844 56.679688 59.273438 56.363281 C 58.953125 56.042969 58.605469 55.757812 58.226562 55.507812 C 57.851562 55.257812 57.457031 55.046875 57.039062 54.875 C 56.621094 54.699219 56.1875 54.570312 55.746094 54.480469 C 55.300781 54.394531 54.855469 54.351562 54.402344 54.351562 C 53.949219 54.351562 53.5 54.394531 53.058594 54.484375 C 52.613281 54.570312 52.183594 54.699219 51.765625 54.875 C 51.347656 55.046875 50.949219 55.257812 50.574219 55.507812 C 50.199219 55.757812 49.851562 56.042969 49.53125 56.363281 C 49.210938 56.683594 48.925781 57.03125 48.675781 57.40625 C 48.421875 57.78125 48.210938 58.175781 48.039062 58.59375 C 47.867188 59.007812 47.734375 59.4375 47.648438 59.882812 C 47.558594 60.324219 47.515625 60.769531 47.515625 61.222656 C 47.515625 61.671875 47.558594 62.121094 47.648438 62.5625 C 47.738281 63.003906 47.867188 63.433594 48.042969 63.847656 C 48.214844 64.265625 48.425781 64.660156 48.679688 65.035156 C 48.929688 65.410156 49.214844 65.757812 49.535156 66.078125 C 49.855469 66.394531 50.203125 66.679688 50.578125 66.929688 C 50.953125 67.179688 51.347656 67.390625 51.765625 67.566406 C 52.183594 67.738281 52.613281 67.867188 53.058594 67.957031 C 53.5 68.046875 53.949219 68.089844 54.398438 68.089844 Z M 54.398438 58.472656 C 54.765625 58.472656 55.117188 58.542969 55.453125 58.683594 C 55.792969 58.820312 56.089844 59.019531 56.347656 59.277344 C 56.609375 59.535156 56.808594 59.832031 56.949219 60.167969 C 57.085938 60.503906 57.15625 60.855469 57.15625 61.222656 C 57.15625 61.585938 57.089844 61.9375 56.949219 62.273438 C 56.808594 62.609375 56.609375 62.90625 56.351562 63.164062 C 56.09375 63.421875 55.796875 63.621094 55.457031 63.761719 C 55.121094 63.902344 54.769531 63.972656 54.402344 63.972656 C 54.039062 63.972656 53.6875 63.902344 53.347656 63.761719 C 53.011719 63.621094 52.710938 63.425781 52.453125 63.167969 C 52.195312 62.910156 51.996094 62.609375 51.855469 62.273438 C 51.714844 61.9375 51.644531 61.585938 51.644531 61.222656 C 51.648438 60.859375 51.714844 60.507812 51.855469 60.171875 C 51.996094 59.835938 52.195312 59.539062 52.453125 59.28125 C 52.710938 59.023438 53.007812 58.824219 53.347656 58.683594 C 53.683594 58.542969 54.035156 58.472656 54.398438 58.472656 Z M 54.398438 58.472656 " fill-opacity="1" fill-rule="nonzero"/><path fill="#ffffff" d="M 40.765625 86.789062 L 40.765625 97.761719 C 40.765625 98.65625 40.855469 99.539062 41.027344 100.414062 C 41.203125 101.292969 41.460938 102.140625 41.804688 102.96875 C 42.148438 103.792969 42.566406 104.574219 43.0625 105.316406 C 43.5625 106.0625 44.125 106.746094 44.757812 107.378906 C 45.394531 108.011719 46.082031 108.574219 46.824219 109.070312 C 47.570312 109.566406 48.355469 109.984375 49.183594 110.328125 C 50.007812 110.667969 50.863281 110.925781 51.738281 111.101562 C 52.617188 111.273438 53.503906 111.363281 54.398438 111.363281 C 55.296875 111.363281 56.183594 111.273438 57.058594 111.101562 C 57.9375 110.925781 58.789062 110.667969 59.617188 110.328125 C 60.445312 109.984375 61.230469 109.566406 61.972656 109.070312 C 62.71875 108.574219 63.40625 108.011719 64.039062 107.378906 C 64.671875 106.746094 65.238281 106.0625 65.734375 105.316406 C 66.234375 104.574219 66.652344 103.792969 66.996094 102.96875 C 67.339844 102.140625 67.597656 101.292969 67.773438 100.414062 C 67.945312 99.539062 68.035156 98.65625 68.035156 97.761719 L 68.035156 86.789062 C 69.1875 86.171875 70.296875 85.480469 71.359375 84.714844 C 72.421875 83.949219 73.429688 83.117188 74.378906 82.214844 C 75.328125 81.3125 76.210938 80.355469 77.03125 79.335938 C 77.851562 78.316406 78.601562 77.246094 79.277344 76.125 C 79.953125 75.003906 80.550781 73.84375 81.070312 72.644531 C 81.589844 71.445312 82.023438 70.214844 82.378906 68.957031 C 82.730469 67.695312 82.996094 66.421875 83.179688 65.125 C 83.359375 63.832031 83.453125 62.53125 83.457031 61.222656 C 83.457031 60.242188 83.410156 59.269531 83.308594 58.292969 C 83.210938 57.320312 83.0625 56.355469 82.863281 55.394531 C 82.667969 54.4375 82.421875 53.492188 82.128906 52.558594 C 81.835938 51.625 81.496094 50.707031 81.109375 49.808594 C 80.722656 48.910156 80.292969 48.03125 79.816406 47.175781 C 79.339844 46.320312 78.824219 45.488281 78.265625 44.6875 C 77.703125 43.882812 77.105469 43.109375 76.46875 42.367188 C 75.828125 41.621094 75.15625 40.914062 74.445312 40.238281 C 73.734375 39.5625 72.992188 38.925781 72.21875 38.324219 C 71.441406 37.726562 70.640625 37.164062 69.808594 36.648438 C 68.976562 36.128906 68.121094 35.652344 67.242188 35.21875 C 66.359375 34.789062 65.460938 34.402344 64.542969 34.058594 C 63.621094 33.71875 62.6875 33.421875 61.738281 33.175781 C 60.789062 32.929688 59.832031 32.730469 58.863281 32.578125 C 57.890625 32.429688 56.917969 32.328125 55.9375 32.277344 C 54.957031 32.222656 53.980469 32.222656 53 32.269531 C 51.421875 32.34375 49.859375 32.546875 48.3125 32.875 C 46.769531 33.207031 45.261719 33.65625 43.789062 34.230469 C 42.320312 34.808594 40.902344 35.496094 39.546875 36.300781 C 38.1875 37.109375 36.902344 38.015625 35.695312 39.03125 C 34.484375 40.046875 33.367188 41.152344 32.335938 42.347656 C 31.308594 43.542969 30.382812 44.816406 29.5625 46.164062 C 28.742188 47.511719 28.039062 48.914062 27.449219 50.375 C 26.855469 51.839844 26.390625 53.339844 26.042969 54.875 C 25.699219 56.414062 25.480469 57.972656 25.390625 59.542969 C 25.300781 61.117188 25.339844 62.6875 25.503906 64.253906 C 25.671875 65.824219 25.964844 67.367188 26.382812 68.886719 C 26.800781 70.40625 27.339844 71.882812 28.003906 73.3125 C 28.664062 74.746094 29.433594 76.113281 30.320312 77.421875 C 31.203125 78.726562 32.1875 79.953125 33.273438 81.097656 C 34.359375 82.242188 35.53125 83.292969 36.789062 84.25 C 38.042969 85.203125 39.371094 86.050781 40.765625 86.789062 Z M 54.398438 107.242188 C 53.433594 107.238281 52.488281 107.089844 51.5625 106.800781 C 50.640625 106.511719 49.78125 106.089844 48.988281 105.535156 C 48.195312 104.984375 47.503906 104.324219 46.910156 103.5625 C 46.320312 102.796875 45.855469 101.964844 45.515625 101.058594 L 63.28125 101.058594 C 62.945312 101.964844 62.480469 102.796875 61.890625 103.5625 C 61.296875 104.324219 60.605469 104.984375 59.808594 105.535156 C 59.015625 106.089844 58.160156 106.511719 57.234375 106.800781 C 56.3125 107.089844 55.367188 107.238281 54.398438 107.242188 Z M 63.902344 96.9375 L 44.898438 96.9375 L 44.898438 92.132812 L 63.902344 92.132812 Z M 29.578125 58.933594 C 29.644531 58.195312 29.746094 57.464844 29.882812 56.734375 C 30.019531 56.003906 30.183594 55.285156 30.382812 54.570312 C 30.582031 53.855469 30.816406 53.152344 31.078125 52.457031 C 31.339844 51.765625 31.632812 51.085938 31.957031 50.417969 C 32.28125 49.75 32.632812 49.097656 33.015625 48.460938 C 33.394531 47.828125 33.804688 47.210938 34.242188 46.609375 C 34.679688 46.011719 35.140625 45.429688 35.628906 44.875 C 36.121094 44.316406 36.632812 43.78125 37.167969 43.265625 C 37.707031 42.753906 38.265625 42.265625 38.84375 41.804688 C 39.425781 41.339844 40.027344 40.90625 40.644531 40.496094 C 41.265625 40.085938 41.902344 39.707031 42.554688 39.351562 C 43.207031 39 43.875 38.675781 44.558594 38.382812 C 45.242188 38.089844 45.9375 37.828125 46.640625 37.597656 C 47.347656 37.367188 48.0625 37.167969 48.785156 37 C 49.511719 36.832031 50.242188 36.699219 50.976562 36.59375 C 51.710938 36.492188 52.453125 36.421875 53.195312 36.386719 C 53.605469 36.367188 54.003906 36.355469 54.410156 36.355469 C 55.222656 36.359375 56.039062 36.398438 56.851562 36.476562 C 57.664062 36.558594 58.46875 36.675781 59.269531 36.835938 C 60.070312 36.996094 60.863281 37.191406 61.640625 37.429688 C 62.421875 37.667969 63.191406 37.941406 63.945312 38.25 C 64.699219 38.5625 65.4375 38.910156 66.15625 39.296875 C 66.875 39.679688 67.574219 40.097656 68.253906 40.550781 C 68.933594 41.003906 69.585938 41.488281 70.21875 42.003906 C 70.847656 42.519531 71.453125 43.066406 72.027344 43.640625 C 72.605469 44.21875 73.152344 44.820312 73.671875 45.449219 C 74.1875 46.078125 74.675781 46.734375 75.128906 47.410156 C 75.582031 48.085938 76 48.785156 76.386719 49.503906 C 76.769531 50.222656 77.117188 50.957031 77.429688 51.707031 C 77.742188 52.460938 78.015625 53.226562 78.253906 54.003906 C 78.492188 54.785156 78.6875 55.574219 78.847656 56.371094 C 79.007812 57.171875 79.125 57.976562 79.207031 58.785156 C 79.285156 59.597656 79.328125 60.40625 79.328125 61.222656 C 79.320312 62.390625 79.234375 63.554688 79.066406 64.710938 C 78.898438 65.867188 78.648438 67.007812 78.320312 68.128906 C 77.992188 69.25 77.585938 70.34375 77.101562 71.410156 C 76.617188 72.472656 76.0625 73.5 75.4375 74.488281 C 74.808594 75.472656 74.117188 76.414062 73.355469 77.304688 C 72.597656 78.195312 71.78125 79.027344 70.902344 79.800781 C 70.027344 80.578125 69.101562 81.289062 68.125 81.933594 C 67.148438 82.582031 66.128906 83.15625 65.074219 83.660156 C 64.714844 83.832031 64.429688 84.082031 64.214844 84.417969 C 64.003906 84.753906 63.898438 85.117188 63.894531 85.515625 L 63.894531 88.003906 L 44.898438 88.003906 L 44.898438 85.519531 C 44.898438 85.125 44.789062 84.757812 44.578125 84.425781 C 44.363281 84.089844 44.078125 83.835938 43.71875 83.667969 C 42.570312 83.128906 41.46875 82.507812 40.414062 81.800781 C 39.359375 81.09375 38.367188 80.308594 37.433594 79.449219 C 36.5 78.589844 35.640625 77.667969 34.847656 76.675781 C 34.058594 75.683594 33.347656 74.636719 32.71875 73.535156 C 32.089844 72.4375 31.546875 71.292969 31.09375 70.113281 C 30.640625 68.929688 30.28125 67.71875 30.015625 66.480469 C 29.75 65.238281 29.578125 63.988281 29.503906 62.722656 C 29.429688 61.457031 29.457031 60.195312 29.578125 58.933594 Z M 29.578125 58.933594 " fill-opacity="1" fill-rule="nonzero"/><path fill="#ffffff" d="M 25.671875 35.480469 L 28.59375 32.566406 L 32.683594 36.644531 L 29.761719 39.558594 Z M 25.671875 35.480469 " fill-opacity="1" fill-rule="nonzero"/><g clip-path="url(#e77bcded08)"><path fill="#ffffff" d="M 92.09375 3.714844 L 80.414062 0.773438 C 80.054688 0.683594 79.695312 0.691406 79.339844 0.792969 C 78.980469 0.894531 78.675781 1.082031 78.417969 1.351562 C 78.164062 1.617188 77.992188 1.933594 77.90625 2.292969 C 77.820312 2.65625 77.828125 3.011719 77.9375 3.367188 L 79.136719 7.34375 C 71.429688 9.734375 62.613281 11.910156 54.039062 14.027344 C 44.160156 16.464844 33.945312 18.984375 25.347656 21.855469 C 13.863281 25.664062 0.691406 31.347656 0.691406 41.539062 C 0.691406 50.953125 12.0625 56.347656 20.617188 59.585938 L 22.082031 55.726562 C 10.46875 51.335938 4.824219 46.691406 4.824219 41.539062 C 4.824219 35.804688 11.960938 30.640625 26.652344 25.757812 C 35.09375 22.945312 45.226562 20.445312 55.019531 18.019531 C 63.636719 15.890625 72.503906 13.691406 80.320312 11.28125 L 81.507812 15.195312 C 81.613281 15.550781 81.804688 15.855469 82.074219 16.109375 C 82.347656 16.363281 82.664062 16.527344 83.027344 16.609375 C 83.179688 16.644531 83.328125 16.660156 83.484375 16.660156 C 84.09375 16.660156 84.601562 16.433594 85.011719 15.984375 L 93.117188 7.097656 C 93.238281 6.964844 93.339844 6.820312 93.421875 6.660156 C 93.503906 6.503906 93.5625 6.335938 93.601562 6.164062 C 93.640625 5.988281 93.65625 5.8125 93.652344 5.636719 C 93.644531 5.457031 93.613281 5.285156 93.5625 5.113281 C 93.511719 4.941406 93.4375 4.78125 93.34375 4.628906 C 93.25 4.480469 93.136719 4.339844 93.007812 4.21875 C 92.878906 4.097656 92.734375 3.992188 92.578125 3.90625 C 92.421875 3.820312 92.257812 3.757812 92.085938 3.714844 Z M 84.414062 10.527344 L 82.941406 5.65625 L 87.746094 6.867188 Z M 84.414062 10.527344 " fill-opacity="1" fill-rule="nonzero"/></g><g fill="#ffffff" fill-opacity="1"><g transform="translate(54.332973, 86.25422)"><g/></g></g></svg>