<svg xmlns="http://www.w3.org/2000/svg" xmlns:xlink="http://www.w3.org/1999/xlink" width="516" zoomAndPan="magnify" viewBox="0 0 386.88 80.999996" height="108" preserveAspectRatio="xMidYMid meet" version="1.0"><defs><g/></defs><g fill="#ffffff" fill-opacity="1"><g transform="translate(0.399977, 62.690676)"><g><path d="M 5.375 -50.421875 L 37.375 -50.421875 L 37.375 -37.234375 L 32 -37.234375 L 32 -45.03125 L 16.265625 -45.03125 L 16.265625 -27.890625 L 32 -27.890625 L 32 -22.515625 L 16.265625 -22.515625 L 16.265625 -5.375 L 32 -5.375 L 32 -13.171875 L 37.375 -13.171875 L 37.375 0 L 5.375 0 L 5.375 -5.375 L 10.078125 -5.375 L 10.078125 -45.03125 L 5.375 -45.03125 Z M 5.375 -50.421875 "/></g></g></g><g fill="#ffffff" fill-opacity="1"><g transform="translate(43.128773, 62.690676)"><g><path d="M 16.265625 -5.375 L 20.96875 -5.375 L 20.96875 0 L 5.375 0 L 5.375 -5.375 L 10.078125 -5.375 L 10.078125 -45.03125 L 5.375 -45.03125 L 5.375 -50.421875 L 19.359375 -50.421875 L 38.984375 -7.59375 L 38.984375 -45.03125 L 34.28125 -45.03125 L 34.28125 -50.421875 L 49.875 -50.421875 L 49.875 -45.03125 L 45.171875 -45.03125 L 45.171875 0 L 35.890625 0 L 16.265625 -42.75 Z M 16.265625 -5.375 "/></g></g></g><g fill="#ffffff" fill-opacity="1"><g transform="translate(97.681882, 62.690676)"><g><path d="M 1.34375 -45.03125 L 1.34375 -50.421875 L 15.59375 -50.421875 L 15.59375 -45.03125 L 10.953125 -45.03125 L 23.0625 -6.109375 L 35.21875 -45.03125 L 30.578125 -45.03125 L 30.578125 -50.421875 L 44.828125 -50.421875 L 44.828125 -45.03125 L 41.40625 -45.03125 L 27.359375 0 L 18.828125 0 L 4.765625 -45.03125 Z M 1.34375 -45.03125 "/></g></g></g><g fill="#ffffff" fill-opacity="1"><g transform="translate(143.837018, 62.690676)"><g><path d="M 4.703125 -5.375 L 10.078125 -5.375 L 10.078125 -45.03125 L 4.703125 -45.03125 L 4.703125 -50.421875 L 21.640625 -50.421875 L 21.640625 -45.03125 L 16.265625 -45.03125 L 16.265625 -5.375 L 21.640625 -5.375 L 21.640625 0 L 4.703125 0 Z M 4.703125 -5.375 "/></g></g></g><g fill="#ffffff" fill-opacity="1"><g transform="translate(170.172993, 62.690676)"><g><path d="M 34.953125 -34.546875 L 29.375 -34.546875 L 29.375 -40.46875 L 25.34375 -44.640625 L 15.0625 -44.640625 L 11.5625 -41.078125 L 11.5625 -31.796875 L 14.859375 -28.4375 L 28.84375 -28.4375 L 35.625 -21.3125 L 35.625 -7.390625 L 28.640625 0 L 11.703125 0 L 4.703125 -7.390625 L 4.703125 -15.859375 L 10.28125 -15.859375 L 10.28125 -9.953125 L 14.390625 -5.78125 L 26.015625 -5.78125 L 29.4375 -9.34375 L 29.4375 -19.359375 L 26.21875 -22.65625 L 12.234375 -22.65625 L 5.375 -29.84375 L 5.375 -43.015625 L 12.375 -50.421875 L 27.96875 -50.421875 L 34.953125 -43.015625 Z M 34.953125 -34.546875 "/></g></g></g><g fill="#ffffff" fill-opacity="1"><g transform="translate(210.483159, 62.690676)"><g><path d="M 4.703125 -5.375 L 10.078125 -5.375 L 10.078125 -45.03125 L 4.703125 -45.03125 L 4.703125 -50.421875 L 21.640625 -50.421875 L 21.640625 -45.03125 L 16.265625 -45.03125 L 16.265625 -5.375 L 21.640625 -5.375 L 21.640625 0 L 4.703125 0 Z M 4.703125 -5.375 "/></g></g></g><g fill="#ffffff" fill-opacity="1"><g transform="translate(236.819134, 62.690676)"><g><path d="M 12.375 0 L 5.375 -7.390625 L 5.375 -43.015625 L 12.375 -50.421875 L 31.328125 -50.421875 L 38.3125 -43.015625 L 38.3125 -7.390625 L 31.328125 0 Z M 14.984375 -5.78125 L 28.640625 -5.78125 L 32.125 -9.34375 L 32.125 -41.078125 L 28.703125 -44.640625 L 15.0625 -44.640625 L 11.5625 -41.078125 L 11.5625 -9.34375 Z M 14.984375 -5.78125 "/></g></g></g><g fill="#ffffff" fill-opacity="1"><g transform="translate(280.488489, 62.690676)"><g><path d="M 16.265625 -5.375 L 20.96875 -5.375 L 20.96875 0 L 5.375 0 L 5.375 -5.375 L 10.078125 -5.375 L 10.078125 -45.03125 L 5.375 -45.03125 L 5.375 -50.421875 L 19.359375 -50.421875 L 38.984375 -7.59375 L 38.984375 -45.03125 L 34.28125 -45.03125 L 34.28125 -50.421875 L 49.875 -50.421875 L 49.875 -45.03125 L 45.171875 -45.03125 L 45.171875 0 L 35.890625 0 L 16.265625 -42.75 Z M 16.265625 -5.375 "/></g></g></g><g fill="#ffffff" fill-opacity="1"><g transform="translate(335.009943, 62.690676)"><g/></g></g><g fill="#ffffff" fill-opacity="1"><g transform="translate(360.790026, 62.690676)"><g/></g></g></svg>