<svg xmlns="http://www.w3.org/2000/svg" xmlns:xlink="http://www.w3.org/1999/xlink" width="630" zoomAndPan="magnify" viewBox="0 0 472.5 129.000003" height="172" preserveAspectRatio="xMidYMid meet" version="1.0"><defs><g/><clipPath id="22a3948601"><path d="M 26 73 L 109.25 73 L 109.25 127.578125 L 26 127.578125 Z M 26 73 " clip-rule="nonzero"/></clipPath><clipPath id="4174ebf196"><path d="M 1.964844 0.183594 L 95 0.183594 L 95 60 L 1.964844 60 Z M 1.964844 0.183594 " clip-rule="nonzero"/></clipPath></defs><g clip-path="url(#22a3948601)"><path fill="#ffffff" d="M 109.25 92.304688 C 109.25 82.507812 96.695312 76.890625 87.25 73.519531 L 85.859375 77.394531 C 98.820312 82.023438 105.121094 86.898438 105.121094 92.304688 C 105.121094 98.121094 98.195312 103.144531 83.324219 108.117188 C 74.964844 110.886719 64.933594 113.363281 55.238281 115.753906 C 45.371094 118.191406 35.171875 120.707031 26.585938 123.574219 L 27.894531 127.484375 C 36.320312 124.675781 46.441406 122.183594 56.226562 119.765625 C 66.011719 117.351562 76.113281 114.859375 84.632812 112.035156 C 96.09375 108.191406 109.25 102.484375 109.25 92.304688 Z M 109.25 92.304688 " fill-opacity="1" fill-rule="nonzero"/></g><path fill="#ffffff" d="M 77.292969 36.492188 L 81.378906 32.414062 L 84.296875 35.324219 L 80.210938 39.402344 Z M 77.292969 36.492188 " fill-opacity="1" fill-rule="nonzero"/><path fill="#ffffff" d="M 53.542969 22.617188 L 57.671875 22.617188 L 57.671875 28.378906 L 53.542969 28.378906 Z M 53.542969 22.617188 " fill-opacity="1" fill-rule="nonzero"/><path fill="#ffffff" d="M 38.257812 65.035156 C 38 65.988281 38.128906 66.886719 38.644531 67.730469 L 41.121094 71.832031 C 41.367188 72.230469 41.675781 72.570312 42.054688 72.851562 C 42.429688 73.132812 42.847656 73.332031 43.300781 73.453125 C 43.757812 73.570312 44.21875 73.601562 44.683594 73.542969 C 45.152344 73.480469 45.589844 73.339844 46 73.109375 L 46.648438 72.75 C 47.546875 73.386719 48.5 73.917969 49.511719 74.347656 L 49.511719 74.925781 C 49.515625 75.398438 49.613281 75.851562 49.796875 76.289062 C 49.984375 76.722656 50.246094 77.105469 50.585938 77.4375 C 50.921875 77.765625 51.3125 78.019531 51.75 78.199219 C 52.191406 78.375 52.648438 78.460938 53.121094 78.457031 L 58.082031 78.457031 C 58.558594 78.460938 59.015625 78.375 59.453125 78.199219 C 59.894531 78.019531 60.28125 77.765625 60.621094 77.4375 C 60.957031 77.105469 61.222656 76.722656 61.40625 76.289062 C 61.59375 75.851562 61.6875 75.398438 61.695312 74.925781 L 61.695312 74.347656 C 62.707031 73.917969 63.660156 73.386719 64.558594 72.75 L 65.207031 73.109375 C 65.617188 73.339844 66.054688 73.484375 66.523438 73.542969 C 66.988281 73.601562 67.449219 73.570312 67.90625 73.453125 C 68.359375 73.332031 68.777344 73.132812 69.152344 72.851562 C 69.53125 72.574219 69.839844 72.230469 70.085938 71.832031 L 72.5625 67.730469 C 73.078125 66.886719 73.207031 65.988281 72.945312 65.035156 C 72.679688 64.0625 72.109375 63.335938 71.226562 62.851562 L 70.671875 62.546875 C 70.785156 61.539062 70.785156 60.53125 70.671875 59.523438 L 71.222656 59.21875 C 72.105469 58.734375 72.679688 58.003906 72.945312 57.035156 C 73.207031 56.082031 73.078125 55.179688 72.5625 54.335938 L 70.085938 50.234375 C 69.835938 49.835938 69.523438 49.5 69.148438 49.222656 C 68.769531 48.945312 68.355469 48.75 67.902344 48.628906 C 67.449219 48.511719 66.988281 48.480469 66.523438 48.539062 C 66.058594 48.59375 65.621094 48.734375 65.210938 48.957031 L 64.558594 49.316406 C 63.664062 48.683594 62.707031 48.152344 61.695312 47.722656 L 61.695312 47.144531 C 61.691406 46.671875 61.59375 46.214844 61.410156 45.78125 C 61.222656 45.34375 60.960938 44.960938 60.621094 44.632812 C 60.285156 44.300781 59.894531 44.046875 59.453125 43.867188 C 59.015625 43.691406 58.558594 43.605469 58.082031 43.609375 L 53.132812 43.609375 C 52.65625 43.605469 52.203125 43.691406 51.761719 43.871094 C 51.320312 44.046875 50.933594 44.300781 50.59375 44.632812 C 50.257812 44.964844 49.996094 45.347656 49.808594 45.78125 C 49.621094 46.214844 49.527344 46.671875 49.523438 47.144531 L 49.523438 47.726562 C 48.511719 48.15625 47.554688 48.6875 46.65625 49.320312 L 46.011719 48.964844 C 45.597656 48.738281 45.160156 48.597656 44.695312 48.542969 C 44.230469 48.484375 43.769531 48.515625 43.316406 48.636719 C 42.863281 48.753906 42.449219 48.953125 42.070312 49.230469 C 41.691406 49.507812 41.378906 49.84375 41.132812 50.242188 L 38.65625 54.339844 C 38.136719 55.183594 38.007812 56.085938 38.269531 57.039062 C 38.535156 58.007812 39.105469 58.734375 39.988281 59.21875 L 40.546875 59.527344 C 40.433594 60.535156 40.433594 61.542969 40.546875 62.550781 L 39.988281 62.855469 C 39.105469 63.335938 38.527344 64.0625 38.257812 65.035156 Z M 44.578125 61.035156 C 44.578125 60.566406 44.609375 60.101562 44.675781 59.636719 C 44.722656 59.285156 44.714844 58.9375 44.65625 58.589844 C 44.597656 58.238281 44.484375 57.90625 44.324219 57.59375 C 44.164062 57.277344 43.957031 56.992188 43.710938 56.742188 C 43.464844 56.488281 43.183594 56.277344 42.871094 56.109375 L 42.511719 55.902344 L 44.40625 52.773438 L 44.914062 53.050781 C 45.550781 53.394531 46.226562 53.539062 46.945312 53.488281 C 47.664062 53.4375 48.316406 53.199219 48.894531 52.769531 C 49.652344 52.21875 50.464844 51.773438 51.335938 51.429688 C 51.671875 51.304688 51.984375 51.128906 52.265625 50.910156 C 52.550781 50.6875 52.792969 50.433594 53 50.136719 C 53.203125 49.84375 53.363281 49.527344 53.472656 49.1875 C 53.582031 48.84375 53.636719 48.496094 53.640625 48.136719 L 53.640625 47.726562 L 57.574219 47.726562 L 57.574219 48.136719 C 57.578125 48.496094 57.632812 48.84375 57.746094 49.1875 C 57.855469 49.527344 58.011719 49.84375 58.21875 50.136719 C 58.421875 50.433594 58.667969 50.6875 58.949219 50.910156 C 59.234375 51.128906 59.542969 51.304688 59.878906 51.429688 C 60.75 51.777344 61.566406 52.230469 62.320312 52.785156 C 62.902344 53.210938 63.550781 53.453125 64.269531 53.503906 C 64.988281 53.554688 65.664062 53.410156 66.300781 53.066406 L 66.8125 52.789062 L 68.703125 55.917969 L 68.347656 56.113281 C 68.035156 56.28125 67.753906 56.492188 67.507812 56.746094 C 67.257812 56.996094 67.054688 57.28125 66.894531 57.597656 C 66.730469 57.914062 66.621094 58.246094 66.558594 58.59375 C 66.5 58.941406 66.492188 59.292969 66.539062 59.644531 C 66.675781 60.574219 66.675781 61.503906 66.539062 62.4375 C 66.492188 62.789062 66.5 63.136719 66.558594 63.484375 C 66.621094 63.835938 66.730469 64.167969 66.890625 64.480469 C 67.054688 64.796875 67.257812 65.082031 67.507812 65.335938 C 67.753906 65.589844 68.035156 65.800781 68.347656 65.96875 L 68.703125 66.164062 L 66.8125 69.292969 L 66.300781 69.011719 C 65.664062 68.671875 64.988281 68.527344 64.269531 68.578125 C 63.546875 68.628906 62.898438 68.871094 62.320312 69.296875 C 61.5625 69.851562 60.75 70.300781 59.878906 70.648438 C 59.542969 70.777344 59.234375 70.949219 58.949219 71.171875 C 58.667969 71.390625 58.421875 71.648438 58.21875 71.941406 C 58.011719 72.234375 57.855469 72.554688 57.746094 72.894531 C 57.636719 73.234375 57.578125 73.585938 57.574219 73.941406 L 57.574219 74.355469 L 53.640625 74.355469 L 53.640625 73.941406 C 53.636719 73.585938 53.582031 73.234375 53.472656 72.894531 C 53.363281 72.554688 53.203125 72.234375 53 71.941406 C 52.792969 71.648438 52.546875 71.390625 52.265625 71.171875 C 51.980469 70.949219 51.671875 70.777344 51.335938 70.648438 C 50.464844 70.300781 49.652344 69.851562 48.894531 69.296875 C 48.316406 68.867188 47.664062 68.628906 46.945312 68.578125 C 46.226562 68.527344 45.550781 68.671875 44.914062 69.011719 L 44.40625 69.292969 L 42.511719 66.164062 L 42.871094 65.96875 C 43.183594 65.800781 43.460938 65.589844 43.710938 65.335938 C 43.957031 65.082031 44.164062 64.796875 44.324219 64.480469 C 44.484375 64.167969 44.597656 63.835938 44.65625 63.484375 C 44.714844 63.136719 44.722656 62.789062 44.675781 62.4375 C 44.609375 61.972656 44.578125 61.503906 44.578125 61.035156 Z M 44.578125 61.035156 " fill-opacity="1" fill-rule="nonzero"/><path fill="#ffffff" d="M 55.609375 67.894531 C 56.058594 67.894531 56.507812 67.851562 56.949219 67.761719 C 57.394531 67.675781 57.824219 67.542969 58.242188 67.371094 C 58.65625 67.199219 59.054688 66.988281 59.429688 66.738281 C 59.804688 66.488281 60.152344 66.203125 60.472656 65.886719 C 60.792969 65.566406 61.078125 65.21875 61.328125 64.84375 C 61.578125 64.472656 61.792969 64.074219 61.964844 63.660156 C 62.136719 63.242188 62.269531 62.8125 62.355469 62.371094 C 62.445312 61.929688 62.488281 61.484375 62.488281 61.035156 C 62.488281 60.582031 62.445312 60.136719 62.355469 59.695312 C 62.269531 59.253906 62.136719 58.824219 61.964844 58.40625 C 61.792969 57.992188 61.582031 57.59375 61.328125 57.222656 C 61.078125 56.847656 60.792969 56.5 60.472656 56.179688 C 60.15625 55.863281 59.808594 55.578125 59.429688 55.328125 C 59.054688 55.078125 58.660156 54.867188 58.242188 54.691406 C 57.824219 54.519531 57.394531 54.390625 56.953125 54.304688 C 56.507812 54.214844 56.0625 54.171875 55.609375 54.171875 C 55.15625 54.171875 54.710938 54.214844 54.265625 54.304688 C 53.824219 54.390625 53.394531 54.519531 52.976562 54.695312 C 52.558594 54.867188 52.164062 55.078125 51.789062 55.328125 C 51.410156 55.578125 51.066406 55.863281 50.746094 56.183594 C 50.425781 56.5 50.140625 56.847656 49.890625 57.222656 C 49.640625 57.597656 49.425781 57.992188 49.253906 58.410156 C 49.082031 58.824219 48.953125 59.253906 48.863281 59.695312 C 48.773438 60.136719 48.730469 60.585938 48.730469 61.035156 C 48.730469 61.484375 48.777344 61.929688 48.863281 62.371094 C 48.953125 62.8125 49.085938 63.242188 49.257812 63.660156 C 49.429688 64.074219 49.640625 64.46875 49.894531 64.84375 C 50.144531 65.21875 50.429688 65.5625 50.746094 65.882812 C 51.066406 66.199219 51.414062 66.484375 51.789062 66.734375 C 52.164062 66.984375 52.5625 67.195312 52.976562 67.371094 C 53.394531 67.542969 53.824219 67.671875 54.265625 67.761719 C 54.710938 67.847656 55.15625 67.894531 55.609375 67.894531 Z M 55.609375 58.289062 C 55.972656 58.289062 56.324219 58.359375 56.660156 58.496094 C 57 58.636719 57.296875 58.835938 57.554688 59.09375 C 57.8125 59.347656 58.011719 59.644531 58.152344 59.984375 C 58.292969 60.320312 58.363281 60.667969 58.363281 61.035156 C 58.363281 61.398438 58.292969 61.746094 58.152344 62.085938 C 58.015625 62.421875 57.816406 62.71875 57.558594 62.976562 C 57.300781 63.234375 57 63.429688 56.664062 63.570312 C 56.328125 63.710938 55.976562 63.78125 55.609375 63.78125 C 55.246094 63.78125 54.894531 63.710938 54.558594 63.570312 C 54.21875 63.433594 53.921875 63.234375 53.664062 62.976562 C 53.40625 62.71875 53.207031 62.421875 53.066406 62.085938 C 52.925781 61.75 52.859375 61.398438 52.859375 61.035156 C 52.859375 60.671875 52.929688 60.320312 53.066406 59.984375 C 53.207031 59.648438 53.40625 59.351562 53.664062 59.09375 C 53.921875 58.835938 54.21875 58.640625 54.554688 58.5 C 54.890625 58.359375 55.242188 58.289062 55.609375 58.289062 Z M 55.609375 58.289062 " fill-opacity="1" fill-rule="nonzero"/><path fill="#ffffff" d="M 41.992188 86.570312 L 41.992188 97.53125 C 41.992188 98.421875 42.078125 99.304688 42.253906 100.179688 C 42.425781 101.054688 42.6875 101.902344 43.027344 102.726562 C 43.371094 103.550781 43.789062 104.335938 44.285156 105.074219 C 44.78125 105.816406 45.347656 106.503906 45.980469 107.132812 C 46.613281 107.765625 47.300781 108.328125 48.042969 108.824219 C 48.785156 109.320312 49.570312 109.738281 50.398438 110.078125 C 51.222656 110.417969 52.074219 110.675781 52.953125 110.851562 C 53.828125 111.027344 54.714844 111.113281 55.609375 111.113281 C 56.503906 111.113281 57.386719 111.027344 58.265625 110.851562 C 59.140625 110.675781 59.992188 110.417969 60.820312 110.078125 C 61.644531 109.738281 62.429688 109.320312 63.171875 108.824219 C 63.917969 108.328125 64.605469 107.765625 65.238281 107.132812 C 65.867188 106.503906 66.433594 105.816406 66.929688 105.074219 C 67.425781 104.335938 67.847656 103.550781 68.1875 102.726562 C 68.53125 101.902344 68.789062 101.054688 68.964844 100.179688 C 69.136719 99.304688 69.226562 98.421875 69.226562 97.53125 L 69.226562 86.570312 C 70.378906 85.953125 71.484375 85.261719 72.546875 84.496094 C 73.609375 83.734375 74.613281 82.902344 75.5625 82 C 76.507812 81.101562 77.394531 80.140625 78.210938 79.125 C 79.03125 78.105469 79.777344 77.039062 80.453125 75.917969 C 81.128906 74.800781 81.726562 73.640625 82.242188 72.441406 C 82.761719 71.242188 83.199219 70.015625 83.550781 68.757812 C 83.902344 67.5 84.171875 66.226562 84.351562 64.933594 C 84.53125 63.640625 84.625 62.339844 84.628906 61.035156 C 84.628906 60.058594 84.582031 59.082031 84.480469 58.109375 C 84.382812 57.136719 84.234375 56.171875 84.039062 55.214844 C 83.839844 54.257812 83.59375 53.3125 83.300781 52.378906 C 83.011719 51.449219 82.671875 50.53125 82.285156 49.632812 C 81.898438 48.734375 81.46875 47.859375 80.992188 47.003906 C 80.519531 46.148438 80.003906 45.320312 79.441406 44.519531 C 78.882812 43.714844 78.285156 42.941406 77.648438 42.199219 C 77.011719 41.457031 76.335938 40.75 75.628906 40.078125 C 74.917969 39.402344 74.179688 38.765625 73.402344 38.167969 C 72.628906 37.566406 71.828125 37.007812 70.996094 36.488281 C 70.167969 35.972656 69.3125 35.496094 68.433594 35.066406 C 67.554688 34.632812 66.65625 34.246094 65.738281 33.90625 C 64.820312 33.5625 63.886719 33.269531 62.9375 33.023438 C 61.992188 32.777344 61.03125 32.578125 60.0625 32.425781 C 59.097656 32.277344 58.121094 32.175781 57.144531 32.125 C 56.167969 32.074219 55.1875 32.070312 54.210938 32.117188 C 52.632812 32.191406 51.074219 32.394531 49.53125 32.722656 C 47.988281 33.050781 46.480469 33.503906 45.011719 34.078125 C 43.542969 34.652344 42.128906 35.339844 40.773438 36.144531 C 39.414062 36.949219 38.132812 37.859375 36.925781 38.871094 C 35.71875 39.886719 34.601562 40.988281 33.574219 42.183594 C 32.546875 43.378906 31.621094 44.648438 30.800781 45.996094 C 29.984375 47.339844 29.277344 48.742188 28.6875 50.203125 C 28.097656 51.664062 27.632812 53.160156 27.285156 54.695312 C 26.941406 56.234375 26.726562 57.789062 26.632812 59.359375 C 26.542969 60.929688 26.582031 62.5 26.75 64.0625 C 26.914062 65.628906 27.207031 67.171875 27.625 68.6875 C 28.042969 70.207031 28.582031 71.679688 29.242188 73.109375 C 29.902344 74.542969 30.675781 75.910156 31.558594 77.210938 C 32.441406 78.515625 33.425781 79.742188 34.507812 80.886719 C 35.59375 82.03125 36.761719 83.078125 38.015625 84.03125 C 39.273438 84.988281 40.597656 85.832031 41.992188 86.570312 Z M 55.609375 106.996094 C 54.640625 106.992188 53.699219 106.847656 52.777344 106.558594 C 51.855469 106.265625 50.996094 105.84375 50.203125 105.292969 C 49.410156 104.742188 48.71875 104.085938 48.128906 103.324219 C 47.535156 102.558594 47.074219 101.726562 46.738281 100.824219 L 64.480469 100.824219 C 64.144531 101.726562 63.679688 102.558594 63.089844 103.324219 C 62.496094 104.085938 61.804688 104.742188 61.011719 105.292969 C 60.21875 105.84375 59.363281 106.265625 58.441406 106.558594 C 57.519531 106.847656 56.574219 106.992188 55.609375 106.996094 Z M 65.097656 96.707031 L 46.117188 96.707031 L 46.117188 91.90625 L 65.097656 91.90625 Z M 30.816406 58.75 C 30.882812 58.011719 30.988281 57.28125 31.121094 56.550781 C 31.253906 55.824219 31.421875 55.105469 31.621094 54.390625 C 31.820312 53.675781 32.050781 52.976562 32.3125 52.28125 C 32.578125 51.589844 32.867188 50.910156 33.191406 50.242188 C 33.515625 49.578125 33.867188 48.925781 34.25 48.289062 C 34.628906 47.65625 35.039062 47.039062 35.476562 46.441406 C 35.910156 45.839844 36.375 45.261719 36.863281 44.707031 C 37.351562 44.148438 37.863281 43.613281 38.398438 43.101562 C 38.933594 42.589844 39.492188 42.101562 40.074219 41.640625 C 40.652344 41.179688 41.25 40.742188 41.871094 40.332031 C 42.488281 39.925781 43.125 39.542969 43.777344 39.191406 C 44.429688 38.839844 45.097656 38.519531 45.78125 38.226562 C 46.460938 37.933594 47.15625 37.671875 47.859375 37.441406 C 48.566406 37.207031 49.277344 37.007812 50 36.84375 C 50.726562 36.675781 51.453125 36.539062 52.1875 36.4375 C 52.921875 36.335938 53.660156 36.265625 54.402344 36.230469 C 54.816406 36.207031 55.214844 36.199219 55.617188 36.199219 C 56.429688 36.199219 57.246094 36.242188 58.054688 36.320312 C 58.867188 36.402344 59.671875 36.519531 60.472656 36.679688 C 61.273438 36.835938 62.0625 37.035156 62.839844 37.269531 C 63.621094 37.507812 64.386719 37.78125 65.140625 38.09375 C 65.894531 38.402344 66.628906 38.75 67.347656 39.136719 C 68.066406 39.519531 68.765625 39.9375 69.445312 40.386719 C 70.121094 40.839844 70.777344 41.324219 71.40625 41.839844 C 72.035156 42.355469 72.640625 42.902344 73.214844 43.476562 C 73.792969 44.050781 74.339844 44.652344 74.855469 45.28125 C 75.371094 45.910156 75.859375 46.5625 76.308594 47.238281 C 76.761719 47.914062 77.183594 48.613281 77.566406 49.328125 C 77.949219 50.046875 78.296875 50.78125 78.609375 51.53125 C 78.921875 52.285156 79.195312 53.046875 79.433594 53.828125 C 79.667969 54.605469 79.867188 55.394531 80.027344 56.191406 C 80.183594 56.988281 80.304688 57.792969 80.382812 58.601562 C 80.464844 59.410156 80.503906 60.222656 80.503906 61.035156 C 80.5 62.203125 80.410156 63.363281 80.242188 64.519531 C 80.074219 65.671875 79.828125 66.8125 79.496094 67.933594 C 79.167969 69.050781 78.765625 70.144531 78.28125 71.207031 C 77.800781 72.273438 77.246094 73.296875 76.617188 74.28125 C 75.992188 75.269531 75.300781 76.207031 74.542969 77.097656 C 73.78125 77.984375 72.964844 78.816406 72.089844 79.589844 C 71.214844 80.367188 70.289062 81.078125 69.316406 81.722656 C 68.339844 82.367188 67.324219 82.941406 66.269531 83.445312 C 65.910156 83.613281 65.625 83.867188 65.414062 84.203125 C 65.199219 84.535156 65.09375 84.902344 65.09375 85.296875 L 65.09375 87.78125 L 46.117188 87.78125 L 46.117188 85.304688 C 46.117188 84.90625 46.007812 84.542969 45.796875 84.207031 C 45.585938 83.875 45.300781 83.621094 44.941406 83.449219 C 43.792969 82.914062 42.691406 82.292969 41.640625 81.585938 C 40.585938 80.878906 39.59375 80.097656 38.664062 79.242188 C 37.730469 78.382812 36.871094 77.457031 36.082031 76.46875 C 35.289062 75.476562 34.582031 74.433594 33.953125 73.335938 C 33.324219 72.234375 32.785156 71.09375 32.332031 69.914062 C 31.878906 68.730469 31.519531 67.519531 31.253906 66.285156 C 30.988281 65.046875 30.816406 63.796875 30.742188 62.535156 C 30.671875 61.269531 30.695312 60.007812 30.816406 58.75 Z M 30.816406 58.75 " fill-opacity="1" fill-rule="nonzero"/><path fill="#ffffff" d="M 26.914062 35.324219 L 29.832031 32.414062 L 33.917969 36.488281 L 31 39.398438 Z M 26.914062 35.324219 " fill-opacity="1" fill-rule="nonzero"/><g clip-path="url(#4174ebf196)"><path fill="#ffffff" d="M 93.257812 3.597656 L 81.589844 0.660156 C 81.230469 0.570312 80.871094 0.578125 80.515625 0.679688 C 80.160156 0.785156 79.851562 0.96875 79.597656 1.238281 C 79.339844 1.503906 79.167969 1.820312 79.082031 2.179688 C 78.996094 2.539062 79.007812 2.898438 79.117188 3.25 L 80.316406 7.222656 C 72.617188 9.609375 63.8125 11.785156 55.246094 13.898438 C 45.378906 16.332031 35.175781 18.847656 26.59375 21.71875 C 15.125 25.519531 1.964844 31.199219 1.964844 41.375 C 1.964844 50.78125 13.324219 56.164062 21.867188 59.398438 L 23.328125 55.546875 C 11.730469 51.160156 6.09375 46.523438 6.09375 41.375 C 6.09375 35.648438 13.222656 30.488281 27.894531 25.613281 C 36.324219 22.804688 46.445312 20.304688 56.226562 17.882812 C 64.832031 15.761719 73.691406 13.5625 81.496094 11.15625 L 82.679688 15.066406 C 82.789062 15.417969 82.976562 15.722656 83.25 15.976562 C 83.519531 16.230469 83.839844 16.398438 84.199219 16.476562 C 84.351562 16.511719 84.5 16.527344 84.65625 16.527344 C 85.261719 16.527344 85.773438 16.300781 86.179688 15.851562 L 94.277344 6.976562 C 94.398438 6.84375 94.496094 6.699219 94.578125 6.542969 C 94.660156 6.382812 94.722656 6.21875 94.761719 6.042969 C 94.800781 5.871094 94.816406 5.695312 94.808594 5.515625 C 94.804688 5.339844 94.773438 5.164062 94.722656 4.996094 C 94.671875 4.824219 94.597656 4.664062 94.503906 4.511719 C 94.410156 4.363281 94.296875 4.222656 94.167969 4.101562 C 94.039062 3.980469 93.894531 3.875 93.738281 3.789062 C 93.582031 3.703125 93.417969 3.640625 93.246094 3.597656 Z M 85.582031 10.402344 L 84.113281 5.535156 L 88.910156 6.746094 Z M 85.582031 10.402344 " fill-opacity="1" fill-rule="nonzero"/></g><g fill="#ffffff" fill-opacity="1"><g transform="translate(138.16875, 86.035613)"><g><path d="M 5.34375 -50.09375 L 37.140625 -50.09375 L 37.140625 -37 L 31.796875 -37 L 31.796875 -44.75 L 16.171875 -44.75 L 16.171875 -27.71875 L 31.796875 -27.71875 L 31.796875 -22.375 L 16.171875 -22.375 L 16.171875 -5.34375 L 31.796875 -5.34375 L 31.796875 -13.09375 L 37.140625 -13.09375 L 37.140625 0 L 5.34375 0 L 5.34375 -5.34375 L 10.015625 -5.34375 L 10.015625 -44.75 L 5.34375 -44.75 Z M 5.34375 -50.09375 "/></g></g></g><g fill="#ffffff" fill-opacity="1"><g transform="translate(180.626895, 86.035613)"><g><path d="M 16.171875 -5.34375 L 20.84375 -5.34375 L 20.84375 0 L 5.34375 0 L 5.34375 -5.34375 L 10.015625 -5.34375 L 10.015625 -44.75 L 5.34375 -44.75 L 5.34375 -50.09375 L 19.234375 -50.09375 L 38.734375 -7.546875 L 38.734375 -44.75 L 34.0625 -44.75 L 34.0625 -50.09375 L 49.5625 -50.09375 L 49.5625 -44.75 L 44.890625 -44.75 L 44.890625 0 L 35.671875 0 L 16.171875 -42.484375 Z M 16.171875 -5.34375 "/></g></g></g><g fill="#ffffff" fill-opacity="1"><g transform="translate(234.834456, 86.035613)"><g><path d="M 1.328125 -44.75 L 1.328125 -50.09375 L 15.5 -50.09375 L 15.5 -44.75 L 10.890625 -44.75 L 22.90625 -6.078125 L 35 -44.75 L 30.390625 -44.75 L 30.390625 -50.09375 L 44.546875 -50.09375 L 44.546875 -44.75 L 41.140625 -44.75 L 27.1875 0 L 18.703125 0 L 4.75 -44.75 Z M 1.328125 -44.75 "/></g></g></g><g fill="#ffffff" fill-opacity="1"><g transform="translate(280.697238, 86.035613)"><g><path d="M 4.671875 -5.34375 L 10.015625 -5.34375 L 10.015625 -44.75 L 4.671875 -44.75 L 4.671875 -50.09375 L 21.515625 -50.09375 L 21.515625 -44.75 L 16.171875 -44.75 L 16.171875 -5.34375 L 21.515625 -5.34375 L 21.515625 0 L 4.671875 0 Z M 4.671875 -5.34375 "/></g></g></g><g fill="#ffffff" fill-opacity="1"><g transform="translate(306.866396, 86.035613)"><g><path d="M 34.734375 -34.328125 L 29.1875 -34.328125 L 29.1875 -40.21875 L 25.1875 -44.359375 L 14.96875 -44.359375 L 11.484375 -40.8125 L 11.484375 -31.59375 L 14.765625 -28.25 L 28.65625 -28.25 L 35.40625 -21.171875 L 35.40625 -7.34375 L 28.453125 0 L 11.625 0 L 4.671875 -7.34375 L 4.671875 -15.765625 L 10.21875 -15.765625 L 10.21875 -9.890625 L 14.296875 -5.75 L 25.84375 -5.75 L 29.25 -9.28125 L 29.25 -19.234375 L 26.046875 -22.515625 L 12.15625 -22.515625 L 5.34375 -29.65625 L 5.34375 -42.75 L 12.296875 -50.09375 L 27.78125 -50.09375 L 34.734375 -42.75 Z M 34.734375 -34.328125 "/></g></g></g><g fill="#ffffff" fill-opacity="1"><g transform="translate(346.921231, 86.035613)"><g><path d="M 4.671875 -5.34375 L 10.015625 -5.34375 L 10.015625 -44.75 L 4.671875 -44.75 L 4.671875 -50.09375 L 21.515625 -50.09375 L 21.515625 -44.75 L 16.171875 -44.75 L 16.171875 -5.34375 L 21.515625 -5.34375 L 21.515625 0 L 4.671875 0 Z M 4.671875 -5.34375 "/></g></g></g><g fill="#ffffff" fill-opacity="1"><g transform="translate(373.09039, 86.035613)"><g><path d="M 12.296875 0 L 5.34375 -7.34375 L 5.34375 -42.75 L 12.296875 -50.09375 L 31.125 -50.09375 L 38.078125 -42.75 L 38.078125 -7.34375 L 31.125 0 Z M 14.890625 -5.75 L 28.453125 -5.75 L 31.921875 -9.28125 L 31.921875 -40.8125 L 28.515625 -44.359375 L 14.96875 -44.359375 L 11.484375 -40.8125 L 11.484375 -9.28125 Z M 14.890625 -5.75 "/></g></g></g><g fill="#ffffff" fill-opacity="1"><g transform="translate(416.483136, 86.035613)"><g><path d="M 16.171875 -5.34375 L 20.84375 -5.34375 L 20.84375 0 L 5.34375 0 L 5.34375 -5.34375 L 10.015625 -5.34375 L 10.015625 -44.75 L 5.34375 -44.75 L 5.34375 -50.09375 L 19.234375 -50.09375 L 38.734375 -7.546875 L 38.734375 -44.75 L 34.0625 -44.75 L 34.0625 -50.09375 L 49.5625 -50.09375 L 49.5625 -44.75 L 44.890625 -44.75 L 44.890625 0 L 35.671875 0 L 16.171875 -42.484375 Z M 16.171875 -5.34375 "/></g></g></g></svg>